<svg xmlns="http://www.w3.org/2000/svg" viewBox="0 0 135.46667 203.20001" width="512" height="768">
    <g id="back">
        <rect id="background" x="0.13228963" y="0.13228759" height="202.93542" width="135.20209" fill="#383d50"/>
        <path id="window-chart" d="M 118.48245,10.202251 H 10.3859 V 118.20471 l 6.59857,6.69266 H 125.08102 V 16.894909 Z" fill="#000000" fill-opacity="0.4" stroke="#ffffff" stroke-width="0.5"/>
        <path id="windows-stats" d="m 10.38565,128.95778 v 6.69242 50.65455 l 6.5985,6.693 h 108.09662 v -50.74906 l -6.59849,-6.59849 H 41.36082 l -6.59849,-6.69242 z" fill="#000000" fill-opacity="0.4" stroke="#ffffff" stroke-width="0.5"/>
        <text id="window-stats-title" x="16" y="135" style="font-size:4pt;font-family:'K2D Medium',sans-serif;fill:#ffffff">
            <tspan style="font-size:4pt;font-family:'K2D Medium',sans-serif;fill:#ffffff" x="16" y="135" id="wst">
                STATS
            </tspan>
        </text>
        <g id="tline">
            <path id="tl3" d="m 33.89651,176.92579 v 6.91693 m -20.90796,-3.45848 h 20.907964" style="fill:none;stroke:#ffffff;stroke-width:0.3px"/>
            <path id="tl2" d="m 33.89651,160.86551 v 6.91694 m -20.90796,-3.45847 h 20.907964" style="fill:none;stroke:#ffffff;stroke-width:0.3px"/>
            <path id="tl1" d="m 33.89651,144.80525 v 6.91694 m -20.90796,-3.45848 h 20.907964" style="fill:none;stroke:#ffffff;stroke-width:0.3px"/>
        </g>
        <g id="icons-bg">
            <path id="ii" d="m 94.391057,143.68686 -7.353556,0 -3.676778,-6.36836 3.676779,-6.36837 7.353555,0 3.676778,6.36837 z" fill="#970c0c" stroke="#ffffff" stroke-width="0.272168" transform="matrix(0.97198071,0,0,0.97228205,-64.72999,14.751408)"/>
            <path id="ir" d="m 94.391057,160.20498 -7.353556,-1e-5 -3.676778,-6.36836 3.676779,-6.36837 7.353555,0 3.676778,6.36837 z" fill="#00a5e8" stroke="#ffffff" stroke-width="0.272168" transform="matrix(0.97198071,0,0,0.97228205,-64.72999,14.751408)"/>
            <path id="ide" d="m 94.391057,176.72309 -7.353556,0 -3.676778,-6.36837 3.676779,-6.36837 7.353555,1e-5 3.676778,6.36836 z" fill="#000000" stroke="#ffffff" stroke-width="0.272168" transform="matrix(0.97198071,0,0,0.97228205,-64.72999,14.751408)"/>
        </g>
        <g id="icons">
            <path id="skull" d="m 23.30196,176.20271 h 0.55531 c 1.00107,0.0987 2.05066,0.419 2.71971,1.21517 0.92748,1.07886 0.88567,2.71887 0.24671,3.9307 -0.20238,-0.33619 -0.30274,-0.71588 -0.42736,-1.08387 -0.0869,-0.0979 -0.20322,-0.0343 -0.27097,0.0501 -0.008,0.58125 0.39225,1.04289 0.56369,1.57229 0.11958,0.31695 -0.11876,0.61302 -0.33955,0.8129 -0.24002,0.22999 -0.5779,0.29772 -0.85137,0.46918 -0.087,0.30189 -0.0552,0.65901 -0.28434,0.90406 -0.34625,0.39473 -0.90909,0.43655 -1.39583,0.49259 h -0.79868 c -0.47085,-0.0628 -1.01278,-0.10962 -1.3473,-0.49092 -0.22916,-0.24589 -0.19821,-0.60132 -0.28269,-0.90406 -0.27264,-0.17145 -0.6105,-0.24086 -0.85053,-0.46918 -0.21995,-0.19905 -0.4583,-0.49176 -0.3454,-0.80789 0.17228,-0.53357 0.57957,-1.00023 0.56536,-1.58566 -0.0685,-0.10454 -0.2601,-0.13548 -0.2944,0.0142 -0.10035,0.35378 -0.21743,0.70503 -0.40143,1.02618 -0.63142,-1.1951 -0.68243,-2.80586 0.20908,-3.88722 0.72844,-0.89152 1.91852,-1.23105 3.02999,-1.25866 m -1.33058,3.8822 c -0.45914,0.11791 -0.66572,0.61302 -0.69415,1.04623 -0.0343,0.28601 0.0476,0.64062 0.3362,0.76858 0.3755,0.16308 0.85973,0.11457 1.15579,-0.184 0.35376,-0.33369 0.44994,-0.92078 0.17228,-1.32974 -0.20155,-0.31279 -0.63058,-0.39056 -0.97012,-0.30107 m 2.48637,-0.0176 c -0.63894,0.0812 -0.84886,0.91743 -0.52855,1.40585 0.26177,0.51517 0.99438,0.67824 1.46104,0.35292 0.33537,-0.31446 0.23669,-0.84134 0.0911,-1.2252 -0.1497,-0.40227 -0.61051,-0.62725 -1.02365,-0.53357 m -1.50119,2.67036 c -0.0326,0.10871 -0.003,0.22747 0.0844,0.30024 0.18901,0.0954 0.28184,-0.13214 0.40144,-0.23418 0.11708,0.0996 0.21325,0.32951 0.39809,0.23418 0.1121,-0.0778 0.11876,-0.22999 0.077,-0.34791 -0.0962,-0.30024 -0.29522,-0.5503 -0.47419,-0.8037 -0.18734,0.26678 -0.40311,0.53022 -0.48673,0.85137 z" fill="#ffffff"/>
            <path id="heart" d="m 20.58737,160.89809 c 0.94856,-0.48473 2.17268,-0.19917 2.85659,0.60206 0.45563,-0.51293 1.12227,-0.8476 1.81527,-0.8376 0.98221,-0.0255 1.92077,0.65298 2.23362,1.57972 0.33923,1.02587 -0.0137,2.16996 -0.66117,2.99847 -0.89764,1.17501 -2.25272,1.84074 -3.38772,2.74655 -1.02313,-0.81668 -2.21452,-1.42784 -3.10487,-2.40642 -0.62207,-0.66662 -1.06043,-1.53789 -1.07498,-2.4628 -0.05,-0.91764 0.49656,-1.82436 1.32326,-2.21998 z" fill="#ffffff"/>
            <path id="biohazard" d="m 23.250272,144.83764 c -0.725151,0.11825 -1.433379,0.5343 -1.733982,1.22953 -0.237918,0.46444 -0.183584,0.99864 -0.119474,1.4987 -0.851946,0.25359 -1.560151,0.95042 -1.658453,1.86078 v 0.5754 c 0.06411,0.12822 0.192641,0.38493 0.258175,0.51315 -0.132493,-0.69096 -0.04882,-1.52037 0.606527,-1.92213 0.718028,-0.52 1.692637,-0.20342 2.229733,0.42343 0.16526,-0.28066 0.346218,-0.55418 0.48156,-0.85051 -0.08975,-0.20088 -0.377331,-0.2265 -0.551139,-0.34332 -0.739397,-0.29063 -1.061712,-1.24952 -0.726918,-1.95187 0.212275,-0.52713 0.783725,-0.72828 1.213971,-1.03316 z m 0.384516,0 c 0.427397,0.3063 1.001799,0.50603 1.211224,1.03316 0.336219,0.6995 0.01391,1.66368 -0.726918,1.95004 -0.175233,0.11112 -0.450095,0.10846 -0.535575,0.32501 0.113973,0.30772 0.288022,0.58857 0.450433,0.87065 0.337643,-0.28493 0.683769,-0.61287 1.143933,-0.66558 0.736548,-0.13819 1.518767,0.3575 1.711095,1.08122 0.07693,0.35617 0.02685,0.72262 0.03113,1.08306 0.05699,-0.16669 0.169603,-0.50165 0.226591,-0.66833 v -0.44311 c -0.116823,-0.89753 -0.810782,-1.58858 -1.658453,-1.83789 0.06411,-0.50006 0.117122,-1.03558 -0.122221,-1.50144 -0.302027,-0.69381 -1.007509,-1.10854 -1.731235,-1.22679 z m -0.191342,1.75321 c -0.416001,-1.8e-4 -0.832319,0.10525 -1.203443,0.31539 0.116822,0.17381 0.236464,0.34631 0.356135,0.51727 0.538521,-0.25359 1.145566,-0.25639 1.684087,-0.001 0.12252,-0.17096 0.245109,-0.3403 0.366205,-0.51269 -0.371123,-0.21227 -0.786985,-0.31842 -1.202984,-0.31859 z m -2.205014,2.01504 c -0.0057,0.85052 0.465876,1.63862 1.205273,2.04892 0.08975,-0.18663 0.179865,-0.37361 0.269619,-0.56166 -0.487233,-0.3234 -0.796431,-0.84038 -0.836322,-1.42592 -0.212274,-0.0228 -0.426296,-0.0428 -0.63857,-0.0613 z m 4.408196,0 c -0.213699,0.0185 -0.42767,0.0385 -0.639943,0.0613 -0.03847,0.58554 -0.350514,1.10109 -0.836322,1.42592 0.08975,0.18805 0.179865,0.3764 0.269619,0.56303 0.739397,-0.41315 1.21092,-1.19977 1.206646,-2.05029 z m -2.492485,0.49072 c -0.09616,4.7e-4 -0.192222,0.005 -0.288386,0.0123 0.09973,0.38608 0.220592,0.80342 0.06958,1.1952 -0.196603,0.63112 -0.834656,1.06429 -1.489998,1.05147 -0.50148,0.0143 -0.889111,-0.3433 -1.316508,-0.54702 0.726575,1.10126 2.42619,1.16371 3.312327,0.22201 0.884712,0.93743 2.585906,0.8849 3.308208,-0.22064 -0.307728,0.14674 -0.582659,0.35757 -0.901782,0.48294 -0.72515,0.22652 -1.587195,-0.17247 -1.862154,-0.88622 -0.198027,-0.41458 -0.08391,-0.87884 0.03433,-1.29911 -0.192329,-0.0143 -0.384902,-0.0143 -0.577231,0 -0.09616,-0.008 -0.192222,-0.0113 -0.288387,-0.011 z" fill="#ffffff"/>
        </g>
        <g id="barrier">
            <path id="b3" d="m 36.286,172.91712 v 1.01024 l 0.68178,-1.01024 z m 1.41916,0 -1.41916,2.10364 v 2.41012 l 1.79212,-2.65555 v -1.85821 z m 0.37257,2.95161 -1.79173,2.65557 v 2.41016 l 1.79212,-2.65559 v -2.41014 z m 0,3.41397 -1.79173,2.65558 v 2.40955 l 1.79212,-2.65555 v -2.40958 z m 0,3.50297 -1.79173,2.65557 v 2.067 0.34315 l 0.23142,-0.34315 1.5607,-2.31244 v -2.41013 z m 0,3.50353 -0.82255,1.21904 h 0.82294 v -1.21904 z" fill="#ffffff" fill-opacity="0.3"/>
            <path id="b2" d="m 36.286,156.85685 v 1.01023 l 0.68178,-1.01023 z m 1.41916,0 -1.41916,2.10364 v 2.41012 l 1.79212,-2.65555 v -1.85821 z m 0.37257,2.9516 -1.79173,2.65558 v 2.41016 l 1.79212,-2.65559 v -2.41015 z m 0,3.41398 -1.79173,2.65557 v 2.40956 l 1.79212,-2.65555 v -2.40958 z m 0,3.50296 -1.79173,2.65558 v 2.067 0.34314 l 0.23142,-0.34314 1.5607,-2.31244 v -2.41014 z m 0,3.50353 -0.82255,1.21905 h 0.82294 v -1.21905 z" fill="#ffffff" fill-opacity="0.3"/>
            <path id="b1" d="m 36.286,140.79659 v 1.01023 l 0.68178,-1.01023 z m 1.41916,0 -1.41916,2.10364 v 2.41012 l 1.79212,-2.65555 v -1.85821 z m 0.37257,2.9516 -1.79173,2.65558 v 2.41015 l 1.79212,-2.65558 v -2.41015 z m 0,3.41398 -1.79173,2.65557 v 2.40956 l 1.79212,-2.65555 v -2.40958 z m 0,3.50296 -1.79173,2.65558 v 2.06699 0.34315 l 0.23142,-0.34315 1.5607,-2.31244 v -2.41013 z m 0,3.50353 -0.82255,1.21904 h 0.82294 v -1.21904 z" fill="#ffffff" fill-opacity="0.3"/> 
        </g>
        <g id="title">
            <text id="title-infected" x="39.158642" y="146.34581" style="font-size:4.5pt;font-family:'K2D Medium',sans-serif;fill:#ffffff">
                 <tspan id="ti" x="39.158642" y="146.34581" style="font-size:4.5pt;font-family:'K2D Medium',sans-serif;fill:#ffffff">
                    CURRENT CASES
                </tspan>
            </text>
            <text id="title-recovered" x="39.158642" y="162.63857" style="font-size:4.5pt;font-family:'K2D Medium',sans-serif;fill:#ffffff">
                 <tspan id="ti" x="39.158642" y="162.63857" style="font-size:4.5pt;font-family:'K2D Medium',sans-serif;fill:#ffffff">
                    RECOVERED CASES
                </tspan>
            </text>
            <text id="title-deaths" x="39.158642" y="178.93132" style="font-size:4.5pt;font-family:'K2D Medium',sans-serif;fill:#ffffff">
                 <tspan id="ti" x="39.158642" y="178.93132" style="font-size:4.5pt;font-family:'K2D Medium',sans-serif;fill:#ffffff">
                    DEATH CASES
                </tspan>
            </text>
        </g>
        <g id="DataBackground">
            <rect id="bg3" x="38.078121" y="148.15968" width="80.645004" height="7.4671292" fill="#ffffff" fill-opacity="0.1"/>
            <rect id="bg2" x="38.078121" y="164.32397" width="80.645004" height="7.4671292" fill="#ffffff" fill-opacity="0.1"/>
            <rect id="bg1" x="38.078121" y="180.38425" width="80.645004" height="7.4671292" fill="#ffffff" fill-opacity="0.1"/>
        </g>
        <g id="ss">
            <text id="ss3" x="40.063793" y="153.88876" style="font-size:4.1pt;font-family:sans-serif;fill:#000000;fill-opacity:0.4">
                 <tspan id="sss3" x="40.063793" y="153.88876" style="font-size:4.1pt;font-family:sans-serif;fill:#000000;fill-opacity:0.4">
                    //
                </tspan>
            </text>
            <text id="ss2" x="40.063793" y="170.05305" style="font-size:4.1pt;font-family:sans-serif;fill:#000000;fill-opacity:0.4">
                 <tspan id="sss2" x="40.063793" y="170.05305" style="font-size:4.1pt;font-family:sans-serif;fill:#000000;fill-opacity:0.4">
                    //
                </tspan>
            </text>
            <text id="ss1" x="40.063793" y="186.11333" style="font-size:4.1pt;font-family:sans-serif;fill:#000000;fill-opacity:0.4">
                 <tspan id="sss1" x="40.063793" y="186.11333" style="font-size:4.1pt;font-family:sans-serif;fill:#000000;fill-opacity:0.4">
                    //
                </tspan>
            </text>
        </g>
    </g>
    <g id="main-data">
        <g id="chart">
            <circle id="chart-bg" cx="67.733345" cy="67.733345" r="51.971222" fill="#a0a0a0"/>
            <path id="infected-chart" d="${infectedChart}" fill="#970c0c"/>
            <path id="recovered-chart" d="${recoveredChart}" fill="#00a5e8"/>
            <path id="dead-chart" d="${deathsChart}" fill="#000000"/>
            <circle id="chart-stroke" cx="67.733345" cy="67.733345" r="51.971222" fill-opacity="0" stroke="#ffffff" stroke-width="0.5"/>
            <g id="total">
                <circle id="total-circle" cx="67.733452" cy="67.549805" r="24.534855" fill="#6e7983" stroke="#ffffff" stroke-width="0.5"/>
                <text id="total-text" x="67.733513" y="65.249619" style="font-size:6pt;font-family:'K2D SemiBold',sans-serif;text-align:center;text-anchor:middle;fill:#ffffff">
                    <tspan id="tt" x="67.733513" y="65.249619" style="font-size:6pt;font-family:'K2D SemiBold',sans-serif;text-align:center;text-anchor:middle;fill:#ffffff">
                        TOTAL
                    </tspan>
                </text>
                <text id="total-case" x="176.28218" y="74.48613" style="font-size:4.5pt;font-family:'K2D',sans-serif;text-align:center;text-anchor:middle;fill:#ffffff">
                    <tspan id="tc" x="67.770706" y="74.48613" style="font-size:4.5pt;font-family:'K2D',sans-serif;text-align:center;text-anchor:middle;fill:#ffffff">
                         ${infected}
                     </tspan>
                </text>
            </g>
        </g>
        <g id="data">
            <text id="infected-cases" x="46" y="153.5" style="font-size:4pt;font-family:'K2D',sans-serif;fill:#ffffff">
                <tspan id="ic" x="46" y="153.5" style="font-size:4pt;font-family:'K2D',sans-serif;fill:#ffffff">
                    ${currentInfected}
                </tspan>
            </text>
            <text id="recovered-cases" x="46" y="169.63027" style="font-size:4pt;font-family:'K2D',sans-serif;fill:#ffffff">
                <tspan id="rc" x="46" y="169.63027" style="font-size:4pt;font-family:'K2D',sans-serif;fill:#ffffff">
                    ${recovered}
                </tspan>
            </text>
            <text id="dead-cases" x="46" y="185.69054" style="font-size:4pt;font-family:'K2D',sans-serif;fill:#ffffff">
                <tspan id="dc" x="46" y="185.69054" style="font-size:4pt;font-family:'K2D',sans-serif;fill:#ffffff">
                    ${deaths}
                </tspan>
            </text>
        </g>
    </g>
</svg>