<svg xmlns="http://www.w3.org/2000/svg" version="1.1" viewBox="0 0 473.604 203.2">
  <defs>
    <style>
      <![CDATA[
        #map > * {
          fill: {mapColor};
          fill-opacity: 1;
          stroke-width: .1;
        }
        #{country}, #{country} > * {
          fill: #970c0c;
        }
      ]]>
    </style>
  </defs>
  <g id="back">
    <path fill="#383d50" d="M0 0h473.655v203.2H0z"/>
    <path fill="#272936" stroke="#fff" stroke-width=".5" d="M118.482 10.202H10.386v108.003l6.598 6.692h108.097V16.895zM10.386 128.958v57.347l6.598 6.693h108.097v-50.75l-6.599-6.598H41.361l-6.599-6.692zM136.164 10.202v176.103l6.599 6.693h320.059V16.8l-6.599-6.599H179.354z"/>
    <text id="window-stats-title" x="24" y="135" fill="#fff" font-family="'K2D ExtraBold', sans-serif" font-size="6" text-align="center" text-anchor="middle">
      <tspan x="24" y="136">STATS</tspan>
    </text>
    <path stroke="#fff" stroke-width=".3" d="M33.897 176.926v6.917m-20.908-3.459h20.908m0-19.518v6.916m-20.908-3.458h20.908m0-19.519v6.917m-20.908-3.458h20.908"/>
    <g id="ibg" stroke="#fff" stroke-width=".3">
      <path fill="#970c0c" d="M27.016 154.456H19.87l-3.574-6.192 3.574-6.192h7.147l3.574 6.192z"/>
      <path fill="#00a5e8" d="M27.016 170.516H19.87l-3.574-6.192 3.574-6.192h7.147l3.574 6.192z"/>
      <path d="M27.016 186.576H19.87l-3.574-6.192 3.574-6.192h7.147l3.574 6.192z"/>
    </g>
    <g id="i">
      <path fill="#fff" d="M23.302 176.203h.555c1.001.098 2.05.419 2.72 1.215.927 1.079.886 2.719.247 3.93-.203-.336-.303-.715-.428-1.083-.087-.098-.203-.035-.27.05-.009.581.392 1.043.563 1.572.12.317-.119.613-.34.813-.24.23-.577.298-.85.47-.088.301-.056.658-.285.903-.346.395-.91.437-1.396.493h-.799c-.47-.063-1.012-.11-1.347-.491-.23-.246-.198-.601-.283-.904-.272-.172-.61-.241-.85-.47-.22-.198-.459-.491-.346-.807.173-.534.58-1 .566-1.586-.069-.104-.26-.135-.295.014-.1.354-.217.705-.401 1.027-.632-1.196-.683-2.806.209-3.888.728-.891 1.918-1.23 3.03-1.258m-1.33 3.882c-.46.118-.666.613-.695 1.046-.034.286.048.64.336.769.376.163.86.114 1.156-.184.354-.334.45-.921.173-1.33-.202-.313-.631-.39-.97-.301m2.486-.018c-.64.081-.85.918-.529 1.406.262.515.995.678 1.461.353.336-.314.237-.841.091-1.225-.15-.402-.61-.627-1.023-.534m-1.501 2.67a.282.282 0 00.084.3c.189.096.282-.131.401-.233.117.1.214.33.398.234.113-.078.12-.23.077-.348-.096-.3-.295-.55-.474-.804-.187.267-.403.53-.486.852zm-2.37-21.839c.949-.485 2.173-.2 2.857.602.456-.513 1.122-.847 1.815-.837.982-.026 1.921.653 2.234 1.58.34 1.025-.014 2.17-.661 2.998-.898 1.175-2.253 1.84-3.388 2.746-1.023-.816-2.215-1.428-3.105-2.406-.622-.667-1.06-1.538-1.075-2.463-.05-.918.497-1.824 1.323-2.22zm2.663-16.06c-.725.118-1.433.534-1.734 1.23-.238.464-.183.998-.12 1.498-.851.253-1.56.95-1.658 1.86v.576c.064.128.193.385.259.513-.133-.69-.05-1.52.606-1.922.718-.52 1.693-.203 2.23.424.165-.281.346-.555.481-.851-.09-.2-.377-.227-.55-.343-.74-.291-1.062-1.25-.728-1.952.213-.527.784-.728 1.214-1.033zm.385 0c.427.306 1.002.506 1.211 1.033.336.7.014 1.663-.727 1.95-.175.111-.45.108-.535.325.113.308.288.588.45.87.338-.284.684-.612 1.144-.665.736-.138 1.519.357 1.711 1.081.077.356.027.723.031 1.083l.227-.668v-.443c-.117-.898-.811-1.589-1.659-1.838.064-.5.117-1.036-.122-1.502-.302-.693-1.007-1.108-1.731-1.226zm-.192 1.753c-.416 0-.832.105-1.203.315.117.174.236.347.356.518a1.953 1.953 0 011.684-.001c.123-.171.245-.34.366-.513a2.425 2.425 0 00-1.203-.319zm-2.205 2.015a2.339 2.339 0 001.206 2.049l.27-.562a1.854 1.854 0 01-.837-1.426 32.049 32.049 0 00-.639-.061zm4.409 0c-.214.018-.428.038-.64.061a1.856 1.856 0 01-.837 1.426l.27.563a2.35 2.35 0 001.207-2.05zm-2.493.49a4.623 4.623 0 00-.288.013c.1.386.22.803.07 1.195-.197.631-.835 1.064-1.49 1.052-.502.014-.89-.344-1.317-.547.726 1.1 2.426 1.163 3.312.222.885.937 2.586.884 3.308-.221-.307.147-.582.358-.901.483-.726.226-1.588-.173-1.863-.886-.198-.415-.083-.88.035-1.3a3.889 3.889 0 00-.577 0 3.349 3.349 0 00-.289-.01z"/>
    </g>
    <g id="b">
      <path fill="#fff" fill-opacity=".3" d="M36.286 172.917v1.01l.682-1.01zm1.42 0l-1.42 2.104v2.41l1.792-2.656v-1.858zm.372 2.952l-1.792 2.655v2.41l1.792-2.655v-2.41zm0 3.414l-1.792 2.655v2.41l1.792-2.656v-2.41zm0 3.503l-1.792 2.655v2.41l.231-.343 1.561-2.312v-2.41zm0 3.503l-.823 1.22h.823v-1.22zm-1.792-29.432v1.01l.682-1.01zm1.42 0l-1.42 2.103v2.41l1.792-2.655v-1.858zm.372 2.951l-1.792 2.656v2.41l1.792-2.655v-2.41zm0 3.414l-1.792 2.656v2.41l1.792-2.656v-2.41zm0 3.503l-1.792 2.656v2.41l.231-.343 1.561-2.312v-2.41zm0 3.504l-.823 1.219h.823v-1.22zm-1.792-29.432v1.01l.682-1.01zm1.42 0l-1.42 2.103v2.41l1.792-2.655v-1.858zm.372 2.951l-1.792 2.656v2.41l1.792-2.656v-2.41zm0 3.414l-1.792 2.656v2.41l1.792-2.656v-2.41zm0 3.503l-1.792 2.656v2.41l.231-.343 1.561-2.313v-2.41zm0 3.504l-.823 1.219h.823v-1.22z"/>
    </g>
    <g id="title" fill="#fff" font-family="'K2D Medium',sans-serif" font-size="5">
      <text id="title-infected" x="39" y="146.346">
        <tspan x="39" y="146.346">ACTIVE CASES</tspan>
      </text>
      <text id="title-recovered" x="39" y="162.639">
        <tspan x="39" y="162.639">RECOVERED CASES</tspan>
      </text>
      <text id="title-deaths" x="39" y="178.931">
        <tspan x="39" y="178.931">DEATH CASES</tspan>
      </text>
    </g>
    <path fill="#fff" fill-opacity=".1" d="M38.078 148.159v7.467h80.645v-7.467zm0 16.165v7.467h80.645v-7.467zm0 16.06v7.467h80.645v-7.467z"/>
    <g id="ss">
      <path fill="#000" fill-opacity=".3" d="M41.452 149.903l-1.388 4.493h.453l1.388-4.493zm1.841 0l-1.388 4.493h.454l1.388-4.493zm-1.841 16.165l-1.388 4.492h.453l1.388-4.492zm1.841 0l-1.388 4.492h.454l1.388-4.492zm-1.841 16.06l-1.388 4.492h.453l1.388-4.492zm1.841 0l-1.388 4.492h.454l1.388-4.492z"/>
    </g>
  </g>
  <g id="main-data">
    <g id="chart">
      <circle id="chart-bg" cx="{cx}" cy="{cy}" r="{r}" fill="#a0a0a0" stroke="#ffffff" stroke-width="1"/>
      <path d="{activeChart}" fill="#970c0c"/>
      <path d="{recoveredChart}" fill="#00a5e8"/>
      <path d="{deathsChart}" fill="#000000"/>
      <g id="total">
        <circle id="total-circle" cx="{cx}" cy="{cy}" r="24" fill="#6e7983" stroke="#fff" stroke-width=".5"/>
        <text id="total-text" x="67.734" y="65.25" fill="#fff" font-family="'K2D ExtraBold',sans-serif" font-size="8" text-anchor="middle" text-align="center" >
          <tspan x="67.734" y="65.25" font-family="'K2D ExtraBold',sans-serif">TOTAL</tspan>
        </text>
        <text id="total-case" x="176.282" y="74.486" text-align="center" fill="#fff" font-family="'K2D Medium',sans-serif" font-size="6" text-anchor="middle">
          <tspan id="tc" x="67.771" y="74.486" text-align="center" fill="#fff" font-family="'K2D Medium',sans-serif" font-size="6" text-anchor="middle">{infected}</tspan>
        </text>
      </g>
    </g>
    <g id="statitics" fill="#fff" font-family="K2D,sans-serif" font-size="5">
      <text id="active-cases" x="46" y="153.5">
        <tspan x="46" y="153.5">{active}</tspan>
      </text>
      <text id="recovered-cases" x="46" y="169.63">
        <tspan x="46" y="169.63">{recovered}</tspan>
      </text>
      <text id="dead-cases" x="46" y="185.691">
        <tspan x="46" y="185.691">{deaths}</tspan>
      </text>
    </g>
  </g>
  <g id="map" class="global">
    <path id="_somaliland" d="M333.432 113.645l1.332.907.395-.019 3.307-1.136.376 1.21-.265 1.022-.715.568-1.786-.114-2.556-1.57z"/>
    <path id="ae" d="M339.396 100.554l.285 1.136 3.218.284.225-2.33.621-.34.169-.852-1.015.285-1.129 1.707z"/>
    <path id="af" d="M345.962 88.185l.519 4.068 1.292.284.121.732-.927.773 1.727 1.394 3.355-1.207.268-1.43 2.112-1.319.811-3.055.603-.65-.626-1.09 2.044-1.265-.261-.365-.944.058-.085.868-1.267-.012-.023-1.159-.408-.486-.685.623.02.572-1.035.391-1.91-.12-2.481 2.598z"/>
    <path id="al" d="M310.02 82.541v1.505l.431.813.309-.037.533-.969-.31-.434-.121-1.074-.411-.382z"/>
    <path id="am" d="M331.467 82.583l1.567 2.044-.46.539-1.11-.193-1.377-1.234.074-.81z"/>
    <g id="ao">
      <path d="M304.992 130.513l1.113 4.155-.026 1.313-1.629 1.75-.244 2.843 6.268.055 2.037.738 1.681-.219-.98-1.228.004-3.505 1.926-.082v-1.368l-1.564-.064-.313-3.239-.659.009-.356-.32-.388.02-.516 1h-1.984l-.461-.464.137-.656-.542-.794z" class="mainland"/>
      <path d="M304.316 129.377l.568.737.735-.696-.216-.72-.182-.014z"/>
    </g>
    <g id="ar">
      <path d="M245.202 150.586l.634.593-2.406 3.575-.846.937.294 4.083 1.857 2.256-1.561 2.723-1.181.51h-1.352l.379 2.125-2.112.725.506 1.786-1.267 4.041 1.564 1.277-.846 2.082-1.436 2.257.76 1.573-1.857.297-1.521-1.87-.255-5.828-2.363-9.898.715-3.461-1.521-4.423 1.012-5.742.93-1.107-.229-.839 1.195-1.091 2.664.183 1.489 1.59 1.72.029 1.763 1.078-.519 1.214.124 1.228 2.497-.118z" class="mainland"/>
      <path d="M239.8 183.424l.085 1.869 1.436-.127 1.225-.81-2.07-.424z"/>
    </g>
    <path id="at" d="M302.384 76.129l-.213.44.183.314.761-.156h.646l.701.593 1.492-.27 1.097-.654.28-.44-.042-.568-.986-.738-1.322.013-.111.75-1.391.68z"/>
    <g id="au">
      <path d="M393.966 153.779l-.114 8.285-1.273.933-.115.816 1.737 1.166 4.286-.816h2.2l.81-1.169 4.864-.934 3.474 1.052-.232 1.4.464 1.4 2.664-.466.115.699-1.737 1.282.578.467 1.272-.467-.346 3.852 2.432 1.867 1.391-.466.695.699 4.054-.585 3.823-6.186 1.391-.349 2.778-5.135.696-4.433-1.737-2.217.695-.467-1.391-4.319-1.504-1.051.231-5.834-1.391-1.05-.346-3.268h-.695l-2.318 7.701-1.273.118-2.896-2.918 1.623-4.32-3.011-.584-3.359.934-.927 2.683-1.505.349-.114-1.867-6.138 3.735.115 1.4-.927 1.283h-2.318l-4.982 2.1z" class="mainland"/>
      <path d="M415.045 176.069l-.578 2.334.114 1.632 1.737-.118 1.969-3.032z"/>
    </g>
    <path id="az" d="M332.019 81.875l-.33.561 1.538 2.018.535-.173.882.923.381-1.618.957.153-.039-.464-1.573-1.377-.3.81z"/>
    <path id="ba" d="M307.009 79.009l-.12.199 2.191 2.258.803-1.182-.03-.466-.701-.852z"/>
    <path id="bd" d="M372.551 96.692l-.428.774 1.109 2.109.033 1.645.202.441 1.303.023.737-.708.536.322.107 1.002.428-.267.026-1.28-.359-.043-.225-1.087-.907-.032-.225-.605.554-.74.009-.367h-1.612z"/>
    <path id="be" d="M296.175 71.69l-.21.522 2.246 1.482.151.02.142-.414.316-.222-.504-.566h-.346l-.474-.538z"/>
    <path id="bf" d="M292.577 110.132l1.188-.094 1.949 2.755-1.809 1.364-1.309-.337-1.76.024-.284 1.031-1.475.072-.405-.552.523-1.678z"/>
    <path id="bg" d="M312.441 80.135l.053 1.626.548 1.142 2.06.036.927-.656.911-.362-.222-1.039.206-.555-.464-.242-.637.053-.5.503-2.095.016z"/>
    <path id="bi" d="M320.528 127.085l1.394-.03-.362 1.221-.353.307h-.432l-.306-.826z"/>
    <path id="bj" d="M295.228 118.362h.692l.039-1.965.875-1.27-.04-2.21-.794-.02-1.361 1.064.568 1.083z"/>
    <path id="bn" d="M400.038 118.284l-.94 1.139.77.242.434-.607z"/>
    <path id="bo" d="M229.938 135.762l2.687-1.172.887.085.591 2.468 4.094 1.361.676 2.086 1.688.212.718 1.786-.506 1.615-2.746.213-1.012 2.595-2.154-.042-.676-.128-1.244 1.208-.614-.059-2.112-4.894.584-.874.206-3.461-.522-2.06z"/>
    <path id="br" d="M248.065 157.327l2.041-3.924.074-3.297 3.807-2.455h2.132l1.675-2.837.303-5.445-.685-1.456 4.035-3.682.153-4.064-5.481-2.684-6.621-2.069-3.121-.307.839-1.763-.228-2.683-.683-.225-1.008 2.004-.529.663-1.358-.601-4.567 1.61-1.521-1.916.245-2.001-1.437 1.462-1.587-.856-.16.226.004.695 1.368.735-2.054 2.164-1.296-.013-1.312-1.335-1.486.046-.182 1.586.852 1.034-1.006 3.222-1.175.091-1.871 1.182-.457 2.321 1.623 1.737.297-.336 1.139-.306.973 1.639 2.785-1.195 1.08.062.745 2.634 3.973 1.261.685 2.101 1.691.203.807 2.007-.545 1.786.711.934-.104 1.391 1.906-.18 1.747 2.207-.137 1.55 1.035.875-2.482 3.757z"/>
    <g id="bs">
      <path d="M223.703 98.657l-.411-.127-.033.794.506.51.346-.51zm.819 1.241l-.568.317.535.763.284-.382zm1.832.571l-.601-.032.062.382.441.637.378-.415zm-.284-.76l-.98-.415-.189-.986.378-.16.379.764.379.287zm-.947-2.005l-.506-.127-.095-.637-.535-.189.346-.35.63.222.473.288z"/>
    </g>
    <path id="bt" d="M372.495 95.05l.506.693 1.71.013-.173-.947z"/>
    <path id="bw" d="M311.485 148.311l.702.215-.098 2.007.721.098 1.659-1.495 1.991.215.528-1.339 2.521-2.301-3.027-3.484-.039-.571-.333-.098-.918.845-2.383.059-.334 2.97-.936.216z"/>
    <path id="by" d="M312.187 68.35l.49.806-.196.643.032.51.18.61 1.012-.574 1.257.032.882.363h2.236l.653-1.564.392-.591v-.395l-1.404-1.975-1.24-.493-1.013-.114-.881.28.033.888-1.224 1.548z"/>
    <path id="bz" d="M212.26 106.254l-.016 1.192h.274l.934-1.743h-.633z"/>
    <g id="ca">
      <path d="M197.133 29.95l.65.983.326 1.312 1.626.408 1.139-1.227.976.493 2.765.245 1.952-.82.327 2.703h1.139v-1.146l1.139.082 2.847 3.359 1.871 1.146-.976 1.557.408.408 3.653.738.082 1.64.976.163.245-2.459 1.544-.408 1.139 1.72 2.439 1.147 1.221.244.813-.983.081-1.557 1.463-.902.486 1.313-1.302 2.295.163 1.146.731-1.146 1.463-1.312.082-1.72-.813-1.314.245-1.063 1.952-.983.894.656.164 5.736 1.381-1.228.812.493-1.139 1.966 1.463.326 2.115-3.277 1.789 1.883-.731 3.359-1.789.983-1.707-.82-3.088.656.326 1.065-.813 1.312-2.52.575-2.847 2.213-2.52 3.36-.326 1.063 1.707.656.65 1.639 2.357 2.377 3.741 1.638-.813 3.767-.081 1.065.976.655 1.302-1.72.164-3.278 2.033-.081.976-1.884.164-2.866 2.601-5.08 3.252 1.146 1.707 2.377-.732 2.376 1.303.738 3.17-2.132.894 5.817 2.929 3.523.081 1.801-3.251.82-1.544 1.638-3.251-.737-1.626-.082-2.847 2.213 1.708-.408 2.115-.408.408.492-.568 1.802.082 1.64.976.655.976-.245.489-.737h.65l-1.058 1.965-2.034.082-.894 1.312h-1.139l-.327-.983 1.626-1.638-1.952.656-.088-2.785-.561-.326-1.708.738-.163 1.394h-3.904l-3.336 2.296-4.472 1.476-.486-.657 2.252-3.362-1.279-1.231-.813-1.56-1.655-1.264-1.776-.147-3.183-2.23-23.083-3.793-.382-1.564-2.116-1.965v-1.639l.327-1.475-.164-.82-.812-.819-.164-1.312 2.116-1.476-1.302-7.045-1.789-.082-1.626-2.132z" class="mainland"/>
      <path d="M189.171 55.984l-.555 1.064.192.754.362.226-.084.306-.389.112.111 1.12.418.42.333-.362-.418-1.09.248-.868.61-.813-.443-.754zm1.835 6.379l-.5.196.917 1.065.222 1.26.918.978.777-.14v-1.286l-.944-.588zm50.08-26.88l-.578.584.506.803 2.39.291-1.521-1.606zm-29.097-9.702l.072 1.313-2.605 2.699.653 2.187 1.88-.509 1.087-1.606 2.749-1.022 2.242-.147-1.736-1.897-.869.656-.653-.218-.362-.803-.796-.803zm3.402-3.865l-.578 1.022 2.824 1.022 1.012-1.532.435 1.023h.724l1.375-1.532-1.665-.437-.653-.51-.869.875zm4.923 2.043l-2.242.947v.728l2.895 1.094-.653.728.434.947 1.809-.803h1.521l.725 1.165 1.231-1.24-.291-1.169-1.012.365-.144-1.458.506-.875h-.506l-.796.51-.362.29.218 1.022-.578.438-.868-.072-.218-1.313zm2.967-2.262l-.218.728 1.374.656 1.012-.584-.072-.437zm1.084-1.24l-1.012.365.072.51 2.243-.147-.072-.51zm4.851 1.24l-.143.51-.362.509v.728l1.374-.218 1.446 1.24h.506v-1.24l-1.446-1.607zm3.693 1.459l.577.656-.506.875.362.947 1.593-.875v-.656l-.94-1.094zm2.099-1.677l.071 1.165h1.956l.506.437-.072.51-1.737.218 1.231 1.678 1.665.291 2.314-1.021-3.329-5.035-1.012.657.071.874-1.159-.437zm-16.865 8.242l-2.749.728-1.593 1.387.143 1.532 2.896.875-.653 1.459-2.099-1.313-.578 1.093 1.374.947-.071 1.531 2.099.584 2.533-.146.434-.803 1.88 2.115 1.303-.437.219-1.46.94.657.143-1.46-1.158-.728.072-4.593-1.013-.803-1.083 1.46zm8.831 3.209l-.94-.437-.506.656 1.012 1.606.071 1.531 2.172-1.312v-1.897l.796-.803-.796-.584h-1.303zm4.632-.656l-1.521 1.24.362 1.531h.94l.434-.802.653.656.653-.072 1.737-1.46zm-.147-2.409l-.362.728 1.593.584.434-.656zm-.94-2.772l-1.593.219-.941.874 1.737.072-.506 1.312.362.585.506-.072 1.231-1.968zm2.752-.509l-.868.291.143 1.166 1.446.947.072.727-.434.438.219 1.46 5.572 1.82 1.521.51 1.522-1.312-1.809-1.46-1.665.438-2.314-.219-.869-.875-.218-2.406-1.447-.728z"/>
      <path d="M237.828 34.17l-1.593-.147-1.88.728-1.013 1.384.291 3.793 3.111.148 2.967 1.459 2.1 2.406 1.593-.072-.435 2.259-1.446 2.406-1.593.727-1.159-.218-.577-.51-.869 1.166.362 1.166 1.231.071 1.521-.728 1.303 3.356L245 55.68l2.242-2.843-1.88-3.063 1.087-1.24 1.521 2.553 2.749-2.407-.506-1.093-1.881.584-1.302-3.575 1.231-2.04-2.462-2.624-1.374.946-1.303-2.843-2.748.366-.725-3.428-2.242 1.531-.219 1.897h-1.231l.144-1.678zm.943-6.93v.656l-1.593.366.434.728 1.809.728 2.027.219 1.447 1.021 1.446-.803-1.012-1.021h1.302l.797-.875 1.955-.29v-.438l-1.087-.728.143-.803 3.04.509 4.489-1.75-1.666-.51.434-.583h3.474l.578-.585-7.022-2.48-1.665-.585-1.809 1.313-2.027-1.678-1.087-.072-.219 1.388-1.374-1.24-1.593.509.291.803 2.39.51-.144 1.165 1.303.803 3.186-.803.072 1.094-2.605 1.24-1.593-1.24-1.446.147 1.446 2.043-.725.366-1.087-.947-.796.51.725 1.384h1.23l-.29 1.312-1.012-.147-1.303-1.387zm-6.45 20.074l-1.381 1.737-.085 1.912 1.208-.695h1.465l1.035.957.95-.784zm16.815 22.59l-3.45 3.304.346.784 4.224 1.563.604-1.041-.346-1.737-1.381.173-.777-.868 1.293-1.303z"/>
    </g>
    <path id="cd" d="M305.24 130.186l3.366-.058.682.969-.026.715.251.229h1.672l.48-.944h.683l.277.28.936-.026.278 3.291 1.619.052v.255l4.351 1.962.202.382h.911l-.101-1.377-1.646-.79.102-1.045.709-1.659 1.619-.052-1.391-4.617.025-1.962 2.201-3.44.025-.483-.33-.18.013-.933-.401-.036-.405-.516-6.643-.3-1.218 1.185-1.994-1.313-.702.431-.509 4.287-1.26.972-.379.862.068 1.277-2.272 1.858-.605-.275.082.355z"/>
    <path id="cf" d="M307.29 119.85l1.521 1.646.601-.777.956.039.206-.758.94-.587 1.952 1.345 1.126-1.116 4.371.192-4.054-4.185.545-.339.074-.738-.92-.434h-1.352l-2.178 2.159-.074.888-1.727-.056-.055.379-1.127-.115-1.015 1.929z"/>
    <path id="cg" d="M305.769 122.616l-.02.474 1.56.039.056 4.051-1.427-.039-.826-.643-.639.359-.03.18.33.16.095.832-.882.758.19.399.976-.758h.47l.149.453.621.265 1.991-1.685-.04-1.23.416-1.002 1.276-.947.343-3.202-.908.003-1.051 1.44z"/>
    <path id="ch" d="M299.864 75.888l-1.425 1.514.03.153.584-.182.526.731.888-.313.614.477.252-.143.757-1.189-.193-.182-.747-.02-.362-.74z"/>
    <path id="ci" d="M286.531 120.732l1.396-.989 1.738-.304 1.772.382-.905-1.367-.264-.836.264-2.472-1.583.075-.717-.685-1.509.039-.718.115.075 1.671-.378.154-.455.836 1.169 1.367z"/>
    <g id="cl">
      <path d="M238.533 181.893l-1.394 3.062 2.407.254.042-2.04z"/>
      <path d="M238.06 181.413l-1.048 1.158-.127 1.361-2.028-1.149-2.154-3.105-.634-1.107.888-1.149-.085-1.447-1.012-.424-.803-.594.17-.809 1.054-.298.213-4.678-1.646-.936-1.074-24.351.278-.482 2.102 4.847.673.014.219.773-.895 1.084-1.028 5.834 1.462 4.492-.676 3.401 2.383 10.003.252 5.85 1.707 1.974z"/>
      <path d="M231.103 169.174l-.421.637.213 1.107.421.042.212-1.404z"/>
    </g>
    <path id="cm" d="M301.466 119.926l1.051.967-.075 1.495 5.766-.134.47-.528-1.653-1.779-.244-.643 1.051-1.969-.715-1.306-.601-.323v-.662l.696-.454.039-2.063-.551-.062-.01 1.084-2.422 4.521-1.482.075-1.015.699z"/>
    <g id="cn">
      <path d="M364.334 69.584l-1.129 2.84-1.558-.082-1.642 3.595 1.394 1.775-2.873 3.967-1.475-.248-.986 1.24.244.745 1.15.082.574 1.321 1.15.249 3.529 4.547v2.315l1.723 1.073 1.887-.33 2.38 1.405 2.872.826 1.394-.165 1.56-.167 3.281-2.148 1.068.166.408.97.905.27 1.231 1.818-.819 1.818.493 1.24 1.393.496.245 1.489 1.642.166.245-.744 2.38-1.241 1.83.082 1.57 1.304.948.1.738.082.329.911.575.081.819-1.156 3.281-1.24 2.955-3.555.985-3.39-.082-2.232-1.231-.248.738-.826-.164-1.322-3.117-3.14v-1.57l.901-1.156.901-.415.082-.91h-2.298l-.411 1.24-1.068-.248-1.313-1.404.82-2.148 1.149-1.24 1.068.081-.164 1.9.574.496 1.394-1.404.493-.081-.163-1.074 1.313-1.57.985.08.575-1.817.672-.355.069-1.133-.653-.686-.055-1.789 1.257-.082-.082-4.612-.881.528-.327 1.183-1.471-.004-4.267-2.4-3.082-3.714-3.127-.033-.796.692 1.012 2.318-.353 2.175-1.259.522-.709-.056-.052 2.151.738.167 1.312-.578 1.724.826v.826l-1.232.082-.986 2.148-.901.081-3.199 4.215-3.362 1.488-2.299.167-1.557-1.074-2.216 1.159-2.38-.745-.575-1.57-4.019-.248-2.132-3.47h-.901l-.725-1.61z" class="mainland"/>
      <path d="M393.528 102.261l-.779.219-.562.692.467.911.685.061.78-.691.186-.911z"/>
    </g>
    <path id="co" d="M228.312 111.928l-.673-.069-4.446 3.666-.47 1.289-.607.069.271 2.85-1.551 3.803 1.685 1.426 2.158.137 1.482 2.174 2.154.069-.069 1.629h.807l.874-2.987-.809-1.017.202-1.9 1.684-.137-.202-4.415-3.774-1.22-.875-2.377z"/>
    <path id="cr" d="M216.446 113.625l.454.888.369.49-.497 1.472-.946-.666-1.548-1.417v-.936z"/>
    <path id="cu" d="M217.578 101.201v.415l1.737.033.819-.477.128.349 1.704.415 1.514 1.368-.346.476.062.543 1.264.317 1.263-.572.568-.572-.819-.414-4.228-2.481-1.482-.16z"/>
    <g id="cv">
      <path d="M272.001 108.912l-.62.355.444.356.532-.268z"/>
      <path d="M273.525 109.63l-.404.359.288.532.691-.31z"/>
      <path d="M272.641 110.638l-.519.31.558.748.441-.231z"/>
    </g>
    <path id="cy" d="M322.813 89.096l.401.291-1.244 1.178-.594-.02-.441-.31.059-.577.901-.059z"/>
    <path id="cz" d="M304.93 74.415h1.446l.774.552 1.433-1.192-1.391-.992-1.377-.666-.944.17-1.28.822z"/>
    <path id="de" d="M299.286 68.868l1.165-.188v-.823l.976-.16.536.539.564.061.882-.382.786.222.692.602.095 2.249.692.92-.911.128-1.511.95.127.316 1.352 1.267-.095.633-1.257.634-1.165.032-.284.6h-.597l-.284-.632-1.039-.255-.033-1.045-.525-.291.043-.703-.153-.502-.749-.688.157-1.078.816-.382z"/>
    <g id="dk">
      <path d="M301.123 63.522l-1.354 1.498-.049.976.618 1.61.966-.183-.121-1.315.667-.745-.013-.584-.47-1.217z"/>
      <path d="M301.824 66.27l-.401.087v.598l.426.33.377-.094-.092-.568z"/>
      <path d="M303.081 65.701l-.359.087-.398.366.169.738.488.191-.504.202-.096.26h.757l.227-.416-.29-.143.095-.363.346-.455-.095-.394z"/>
    </g>
    <path id="dj" d="M332.042 112.502l-.187 1.096 1.293-.019.02-1.613-.473-.291z"/>
    <path id="dm" d="M236.584 107.064l-.287.61.346.464.431-.376z"/>
    <path id="do" d="M231.374 105.614l-1.727-1.129-1.09-.386-.218 2.085.218-.018.287.552.376-.434 1.093-.291.95.203z"/>
    <path id="dz" d="M300.18 88.33l-1.332-.449-5.542 1.042-1.208.917.737 3.81-2.203.088-1.326 2.132-3.156.757.009 1.55 10.398 7.95 1.772.15 5.912-4.619-.591-.744-1.11-.151-.666-1.116v-4.62l-.445-.447.075-1.191-1.182-1.192-.147-1.266.516-.373-.222-1.342z"/>
    <g id="ec">
      <path d="M220.631 123.703l-1.544.96-.111 1.424-.31.466.972.934-.421.46.098 1.176 1.74.414 2.635-3.118-.007-1.086-1.263-.082z" class="mainland"/>
      <path d="M209.13 124.463l-.203.898-.375.379.258.463.662-.26.317-.552-.203-.58z"/>
    </g>
    <g id="ee">
      <path d="M314.507 60.962l-1.828-.065-1.158.708-.017.526.751.708 2.335.395z" class="mainland"/>
      <path d="M310.608 61.243l-.494.166.494.085.224.261.269-.322-.268-.459z"/>
      <path d="M310.818 61.904l-.704.314-.243.42.243.273.892-.33.43-.285z"/>
    </g>
    <path id="eg" d="M315.866 93.412l.872.023 1.697.47.807.023.999-.836h.466l.849.47h1.075l.192-.013.679 1.953.193.63.18.943-.321.235-.552-.277-.636-2.077-.575-.041-.042.705.382 1.22 3.059 3.787.066 1.626-.891 1.028-8.37-.095z"/>
    <path id="er" d="M327.22 110.269l-.082-1.923 1.293-1.508.35.268.637 2.129 3.055 2.275-.555.682-2.236-1.922z"/>
    <g id="es">
      <path d="M291.849 80.987h-4.16l-.839-.38-.404.03-.49 1.018.173 1.048 1.59.147.202.669-.692 3.901.029.7 1.126.61 1.299.088 2.599-.64 1.27-1.599.029-1.629 2.253-2.037.114-.901-2.05-.03z" class="mainland"/>
      <path d="M281.161 96.894l-.571.33.264.268z"/>
      <path d="M279.176 96.957l-.708.18.353.535h.532z"/>
      <path d="M277.492 96.421l-.444.447.62.536.353-.803z"/>
      <path d="M296.008 84.973l-.519.176.115.467h.75l.317-.35z"/>
    </g>
    <path id="et" d="M324.863 115.839l2.376-5.289 2.36.013 2.093 1.818-.147 1.498h1.622l.166.901 2.625 1.57 1.618.082-3.077 3.307-4.228 1.303h-1.047l-1.867-1.594-.738-.309-1.43-2.106-.943.013-.112-.966z"/>
    <path id="fi" d="M310.923 52.24l.676.296.417.784-.417.542-2.096 2.292-.359 1.208.48 1.75 1.615 1.207 2.155-1.025 1.737-.241 1.616-2.596-1.199-2.837-1.139-2.716.18-1.75-.718-.12-.186-1.277-.966-1.577-1.071.741-.421 1.72-1.136-.681-1.581-.386-.352.412.607.548 1.106-.02.891 1.44z"/>
    <g id="fk">
      <path d="M246.012 179.96l-.858-.094-.856.574.62.673z"/>
      <path d="M246.868 179.529l-.284.911-.81.718.049.238 1.38-.529.572-.718z"/>
    </g>
    <g id="fr">
      <path d="M295.78 72.401l-.722.177-1.442 1.57-.434.03-.578-.409-.375.088-.288.901-2.109.059.059.466 1.443.96 1.675 1.339-.029 1.6-.895 1.57 1.936.93 1.966.058.606-.698 1.241.03.346.32 1.241-.089.636-.816-.81-.96-.058-.61.173-.669-.405-.581-.692.202-.088-.522 1.531-1.688V74.64l-.886-.29-.541-.372z" class="mainland"/>
      <path d="M244.112 119.116l1.91 1.191-.999 1.985-.362.457-1.061-.61.03-2.139z"/>
      <path d="M343.761 145.418l-.745.049-.048.65.495.102.745-.349z"/>
      <path d="M335.012 136.255l.248.552h.398l.199-.702z"/>
      <path d="M237.564 108.745l-.347.32.258.522.49-.144z"/>
      <path d="M301.469 81.627l-.637.64-.058.58.519.32.202-.028.115-.846z"/>
      <path d="M235.778 106.571l-.489.202.173.433.574-.375-.114-.117z"/>
    </g>
    <path id="ga" d="M304.264 122.652l-.04.812-1.841-.039-1.126 2.177 2.648 2.896.656-.549-.02-.568-.45-.209v-.399l1.015-.642.902.682.996.02-.02-3.425-1.578-.074-.019-.718z"/>
    <g id="gb">
      <path d="M291.118 62.732l-.598.904.239.362h1.377v.605l-.359.482.238 1.267.778 1.508.597 1.387.956.362.418.725-.059.663-.597.362-.059.3.417.242-.359.483-.838.362-1.616-.18-2.517 1.146-.839-.42 2.396-1.388-.3-.18-1.257-.121.777-1.146.12-.966 1.019-.12-.18-1.871-1.198-.059-.359-.421.058-1.388-.718.06.718-2.413 1.319-.967z" class="mainland"/>
      <path d="M288.604 66.776l-1.077.12-.059.968.718.482.777-.18.301-.541z"/>
    </g>
    <path id="ge" d="M326.812 80.713l1.068 1.394 1.332.613.819-.004 1.407-.38.353-.553-4.162-1.557z"/>
    <path id="gh" d="M290.537 117.566l.365.858.954 1.495.528-.019 1.443-.82-.102-4.666-1.116-.326-1.564.042z"/>
    <g id="gl">
      <path d="M250.315 30.41l-.444.708.8.8-.356.8 1.155 1.508 1.421-.444 1.864-.176 2.131 2.308 1.421 3.816-1.152 2.396 1.596-.268.889.533.088 1.155-1.952.088 1.064 1.064 1.332.268-2.929 3.904-.355 2.397.62 1.952-.444 1.155.8 2.485 1.508 1.687.444-.087.976-.268.088 1.42.62.888 1.153-.088.888-3.284 2.664-3.284 3.996-1.597 2.484-3.107 1.152.531h2.396l1.953-1.951 2.396-.976.268-1.509-1.508-1.332-1.332-.443-.712-1.865 1.688-.976 2.664 1.42.888-.976-1.42-.8 3.02-4.083-.532-1.776-1.421-.087.532-1.597 1.776-.8 3.64-3.195-1.064-1.153-4.084.355-2.132 2.133 1.245-2.753-1.421-.355-.799 1.42-1.153-.976-3.196.355.888-1.42 5.237-.176-1.332-1.776-5.68-1.064-2.308.356.088 1.156-2.396-.8.088-.8-1.689.355-.355.889 1.776.62-1.864 1.332-1.332-1.508-1.864-.532-.268 1.42h-1.865l-.712-1.508-2.928-.445-1.597.8-.088 1.064-2.04-.268-1.244.532.089 1.244v.621l-2.308.444-1.065-.709-.711 1.153 1.064 1.156 2.22-.268.176.712-1.687.8z" class="mainland"/>
      <path d="M257.418 44.257l.532.8-.267.976h-.532l-.712-.8.176-.62z"/>
      <path d="M279.611 42.038l1.507.444-.088 1.244-1.596-.8-.356-.444z"/>
    </g>
    <path id="gm" d="M278.311 111.458l-.042.362 2.259-.033.115-.336-.049-.339-.65.264z"/>
    <path id="gn" d="M279.464 114.592l.992 1.528 1.293-1.124 1.326-.058 1.104 1.466.936.617.353-.686.313-.176-.023-1.508-.623-1.789-1.913.213-2.367-.19-.013.607z"/>
    <g id="gq">
      <path d="M301.146 120.948l-.149.643.45.244.431-.322-.15-.663z"/>
      <path d="M302.501 122.671l-.02.454 1.482.075-.02-.513z"/>
    </g>
    <g id="gr">
      <path d="M310.898 85.1l-.037.434 1.512.76.722.278-.379.398-.842.086-.121.382.292.656.943.502.412.036.052-1.125.617-.745-1.684-1.991.222-.676.395-.016.601.483.379-.19.12-.675 1.409.202.429-1.224-.738.52-2.164-.053-1.407.728z" class="mainland"/>
      <path d="M314.178 89.34l.532.017.222.33h.774l.515-.19.173.21-.342.45-1.512.052-.274-.362-.291-.173z"/>
    </g>
    <path id="gt" d="M209.101 109.231l1.936 1.417 1.952-2.426-.333-.502-.666-.024v-1.42l-.5-.304-1.511.45.578 1.332z"/>
    <path id="gw" d="M278.869 113.478l.458.905 1.282-1.104.013-.339-1.512-.219z"/>
    <path id="gy" d="M238.536 116.612l2.357 2.135-.937 1.083-.075.644 1.231 1.269-.029 1.221-2.142.816-1.283-1.734.275-2.083-.549-1.55z"/>
    <path id="hn" d="M213.237 108.337l3.016-.115.895 1.064-.558-.127-1.074.045-1.404 1.319-.601 1.335-.395-.209-.003-1.462-.868-.582z"/>
    <path id="hr" d="M307.277 77.775l-1.152.95h-1.169l-.141.822.536.14.268-.398.42.369.337 1.175 2.307 1.078.228-.261-2.34-2.416.238-.44 2.224-.086.225-.708-1.449.042z"/>
    <path id="ht" d="M227.375 103.962l1.123.118-.133 1.378-.111.724-1.309-.071-.232.349-.402-.029-.143-.754 1.38-.115-.085-.783-.633-.261z"/>
    <path id="hu" d="M307.643 75.96l-.379.594.03.907.603.31 1.858.055 2.589-2.18.012-.483-.28-.14-1.87.849z"/>
    <g id="id">
      <path d="M381.336 117.735l-.091.745 2.216 3.724h.646l4.619 7.727 1.848.186.924-2.699-1.479-.931-.277-1.488z"/>
      <path d="M403.224 128.031l.738.905-.48 1.358v.259h1.09l.386-3.395.353.098.639 3.101.61.164.578-1.326-.578-2.005-.48-.872 1.508-1.099-.353-.487-1.442.937h-.386l-.704-1.035.225-.454 1.188-.581 1.796.549.545-.034 1.347-1.259-.544-.548-1.251.968h-.803l-1.218-.58-.865.032-.963 1.551-.61 2.683z"/>
      <path d="M411.274 121.956l-.61 1.486.963 1.261h.32l.417-.84.226-.291-.417-.453-.611-.226z"/>
      <path d="M413.168 126.837l-1.315.291-.386.421.32.549.865-.323.545-.323.803.647.353-.292-.64-.776z"/>
      <path d="M391.354 131.039l-.897.613.192.515 2.857.647 1.442.258.61.647 1.636.13.77.646.705-.163.643-.581-1.188-.548-1.025-.872-2.664-.647z"/>
      <path d="M400.691 133.849l-.704.388.417.454 1.025-.388z"/>
      <path d="M401.908 133.558l.128.614.738.193.287-.356-.32-.487z"/>
      <path d="M403.675 135.174l-.898.131.803.679h.64z"/>
      <path d="M403.929 134.107l-.193.388 1.443.225 1.123-.646-.639-.193-1.026.291-.385-.323z"/>
      <path d="M408.646 134.335l-1.667 1.391.159.356.705-.13.833-.778 1.636-.226-.321-.548z"/>
      <path d="M417.066 124.842l-1.362.153-.874.64.362.732 1.483.274v.274l-.937.761.454 1.583.453.03.392-1.554h.725l.304 1.521 3.535 2.925.091 2.285 1.208 1.31.545-.03.12-8.07-2.054-1.429-1.935 1.309-.696.428-1.149-.732-.03-2.314z"/>
      <path d="M400.661 119.965l-.754 2.833-4.09 1.381-1.224-1.436-.594.163 1.11 4.283 1.66.186 2.217.839v.839l1.015-.186 1.479-2.047v-1.675l.832-1.675.924.186-1.11-2.328-.169-1.498z"/>
    </g>
    <path id="ie" d="M288.96 68.435l-.297 1.959-2.634.966h-.84l-.597-.42v-.363l1.319-.846-.36-.725.059-1.025 1.14.059.522-1.227-.069 1.09.886.702z"/>
    <path id="il" d="M323.502 91.78l-.516 1.641.669 1.969.767-2.876v-.617z"/>
    <path id="in" d="M364.524 116.247l1.494-.732.889-3.212-.04-3.943 5.087-5.491v-1.302l1.047-.408-.039-1.505-1.13-2.196.647-1.179 1.413 1.303 1.816.081v.732l-.565.61.12.326.97.04.202 1.096h.284l.728-1.302.362-3.415 1.211-.856.04-1.178-.483-.937-.767-.04-3.003 1.986.189 1.276-2.109-.007-.744-.91-.405.052.137 1.267-4.56-.326-2.827-1.26-.15-1.551-1.884-1.169-.022-2.405-1.293-1.48-2.971.285.323 1.293 1.455 1.178-2.517 5.152-1.684.127-.277.62 1.658 1.535-.081 1.55-1.694-.026-.183.77 1.407-.062.04.611-1.009.529.646 1.22 1.251.408.767-.568.362-1.015.445-.202.525.528-.16 1.302-.362.611.082 1.057z"/>
    <path id="iq" d="M329.701 87.526l-.509 2.517-2.11 1.756.134.829 2.06.14 3.281 2.67 1.835-.052.049-.617.672-.722.94.532.125-.117-1.819-2.42-.862-.052-1.145-1.472.228-1.083.35-.046.12-.48-1.56-1.642z"/>
    <path id="ir" d="M331.444 85.214l-.399.415.039.656.496.696 1.76 1.927-.268.77h-.307l-.153.77.996 1.273.917.079 1.838 2.542 1.031.079.803.577.04 1.156 3.176 1.85h1.186l.727-.616.918-.04.536 1.235 3.431.476.102-1.26 1.135-.411.053-.45-.905-1.235-2.014-1.619 1.058-.963-.075-.424-1.326-.206-.561-4.473-.066-1.028-3.594-1.375-1.593.36-.891 1.093-.791-.053-.228.193-1.76-.114-2.219-1.62-.827-.904-.379.091-.682.78z"/>
    <path id="is" d="M278.138 52.36l-.639-.362-.862.545-.741.685.02.382.959.12-.059.686-.339.343.082.222.96.062v1.11l1.38.242.82.464.92.04 1.581-.787 1.22-1.613.02-1.09-.741-.628-.62-.525-.281.202-.421.545-.48-.062-.48-.526-.62.059-.901.747-.543.585-.3-.26-.02-.648.3-.202z"/>
    <g id="it">
      <path d="M299.654 78.37l-.202.511.055.559.78.91 1.228-.042 2.709 3.147 1.692.49.999.943.238 2.151.536-.313.464-1.172-.115-.842.794-.071.115-.477-2.237-1.07-2.122-2.086-.845-1.248-.206-1.184 1.081-.259-.278-.78-.662-.558-.572-.026-.796.219-.752 1.05-.453.3-.702-.43z" class="mainland"/>
      <path d="M306.239 86.87l-.473-.255-1.616.254.055.438 1.453.731.219.238.382.056z"/>
      <path d="M301.381 83.723l-.864.437.114 1.688.693.117.518-.495v-1.6z"/>
    </g>
    <path id="jm" d="M223.481 105.337l-1.136.287v.317l.663.382h.695l.44-.509z"/>
    <path id="jo" d="M324.67 92.667l-.803 2.801-.036.428h1.264l1.413-1.247.036-.474-.577-.59 1.034-.858-.15-.797-.284.066-.861.617z"/>
    <g id="jp">
      <path d="M407.696 84.715l-.532.535.218.754.467.032.314 1.636.375.408.656-.597.057-1.803-.755-.802z"/>
      <path d="M410.48 83.202l-1.004.814-.223 1.027.684.472.991-1.038.14-1.157z"/>
      <path d="M409.319 81.633l-1.594 1.825v.877l.984-.118 1.542-1.357 1.032-.19.25.295.006.898.26.472h.474l.666-.815.28-1.071 1.342-.033 1.312-1.573-.685-2.612-.313-1.384.685-.565-1.561-2.357-.356-.28-.708.28-.182.976v.787l.375.44.124 2.077-.966 1.195-.561-.346-.438.975-.095.911.344.536-.219.408-.718-.598h-.5l-.437.252z"/>
      <path d="M412.006 67.42l-.499.44.251.944.438.44-.033 1.446-.561.219-.438.975 1.28 1.76.842-.284.157-.44-.905-.817.561-.724.594.094 1.295.87.14-.975.616-1.125.861-.874-.932-.424-.357-.68-.467.313-.404.502-.875-.189-.905-.597z"/>
      <path d="M416.716 66.443l-.875 1.228.062.597.437-.19 1.029-1.289z"/>
      <path d="M417.872 64.65l-.313.85.032.565.532-.347.5-1.005v-.376z"/>
    </g>
    <path id="ke" d="M325.301 120.657l.868 1.694-1.042 2.184-.136.662 5.2 3.216 1.613-2.533-.816-.663-.016-3.336 1.022-1.117-1.629.542-1.231.017-1.926-1.626-.607-.261-1.126.104-.198.334z"/>
    <path id="kg" d="M353.369 79.096l-.102.827.082.51 2.84.952-2.494 1.006-.283-.236-.539.347.025.189.288.13 1.75.046.888-.268 1.14-1.436 1.426.248 1.721-2.383-4.603-.627-.637 1.544-.803-.862z"/>
    <path id="kh" d="M387.212 111.826l1.335 1.426 2.483-1.841.219-2.905-1.283.885-.666-.372-.905-.121-.506-.355-.245.013-.662 1.087.107.503.673.376-.082 1.021z"/>
    <path id="km" d="M334.069 135.253l.149.499.647.101.247-.649z"/>
    <path id="kp" d="M399.552 77.484l.6.252.183 2.102 1.191.069 1.124-1.316-.389-.346.046-1.41 1.031-1.247-.526-.947.343-.392.189-.979-.597-.271-.51.258-.63 1.912-1.018-.087-1.179 1.39z"/>
    <path id="kr" d="M402.835 78.767l2.018 1.645.343 1.593-.069.855-.986 1.11-.849.046-.963-2.08-.366-.993.389-.3-.092-.415-.48-.215z"/>
    <path id="kw" d="M335.897 94.753l-.735-.399-.509.513.055 1.025 1.186.453z"/>
    <path id="kz" d="M333.742 75.64l1.339-.572 1.495-.052.104 2.285h-.875l-.669 1.09.875 1.453 1.289.729.118.832.474-.157.437-.52.721.158.363.728h.927v-.934l-.568-1.662-.259-1.347 1.649-.729 2.216.362 1.391 1.401 3.144-.31 1.753 2.491 2.061.104.568-.934.721-.157.103-1.038 1.081-.052.568.675.568-1.348 4.894.676.822-1.09-1.39-1.714 1.854-4.048 1.495.104 1.031-2.49-2.06-.21-1.185-1.142-3.265.379-4.205-4.065-1.482 1.315-4.495-2.04-5.514 2.7-.153 1.92 1.289 1.504-2.514 1.42-3.261-.071-.682-1.002-2.557-.141-2.422 1.557-.053 2.13z"/>
    <path id="la" d="M385.576 99.898l-.79.401-.656 1.913 1.097 1.397-.183 1.545.183.074 1.825-.885 2.448 2.735-.06 1.724.533.287 1.315-1.067-.108-.845-3.796-3.608.035-.551.474-.33-.33-.921-1.57-.258z"/>
    <path id="lb" d="M323.789 89.945l.02.636-.267.967.92.079.059-1.372z"/>
    <path id="lc" d="M237.534 110.051l-.231.493.375.404.489-.261z"/>
    <path id="lk" d="M367.644 114.627l.082.888.082.647-.48.081.242 1.454.721.404 1.12-.646-.32-1.531.081-.565-1.04-.966z"/>
    <path id="lr" d="M282.647 118.264l3.584 2.396-.086-1.815-1.083-1.276-1.058-.937z"/>
    <path id="ls" d="M317.655 152.933l.996-.767.47.02.567.708-.058.709-.957.353v.275l-1.054-.059-.255-.767z"/>
    <path id="lt" d="M310.571 65.47l-.81.138.065.764 1.267.095.48.393.126.684.39.545 1.159-.05 1.11-1.413-.065-.84-2.09-.327z"/>
    <path id="lu" d="M298.593 73.91l.288.256.332.031.073-.655-.095-.367-.463.22z"/>
    <path id="lv" d="M314.606 63.48l-2.403-.392-.41 1.066-.692.207-.362-.443-.364-.684-.392.288-.222 1.182v.646l.847-.142 1.761.031 2.122.394.849-.248-.049-.953z"/>
    <path id="ly" d="M302.194 95.034l.51-.085.15-1.175h.254l1.042-1.71 2.57.747.7 1.09 2.527 1.157 1.315-.555-.128-.556-.574-.555.065-.385.934-.79h1.848l.701.94 1.486.215.193 12.043-1.103-.042-6.666-3.468-.722.409-2.739-.686-.744-.983-1.084-.149-.551-.983z"/>
    <path id="ma" d="M291.826 89.892h-3.77l-.737 1.639-1.701.82-1.405 3.8-2.735 1.639-3.843 6.33 3.771-.075.146-1.861h.96v-2.533h3.327l.074-3.278 3.18-.745 1.332-2.161 2.069-.075z"/>
    <path id="md" d="M315.481 75.342l1.012 1.557-.085.882.363.016.858-1.453-1.032-1.28-.584-.241z"/>
    <path id="me" d="M309.642 81.12l-.478.676.137.416.568.103.447-.606z"/>
    <path id="mg" d="M338.838 135.805l-.695 1.652-1.192 2.102-2.085.149-.895 1.051.15 3.206-1.293 1.502.15 2.553 1.094 1.25 1.293-.149 1.292-.953-.297-1.502 2.981-5.158-.597-.65.597-1.25.646.198.199-.499-.597-2.553-.349-1.051z"/>
    <path id="mk" d="M312.272 81.97l-1.1.362.053.934.258.33 1.306-.607z"/>
    <path id="ml" d="M282.415 110.642l1.005-.689 5.589-.033-1.293-8.99 1.476-.042 7.139 5.448.959.137-.362 3.029-4.489.408-3.463 2.586-.631 1.77-2.405.101-.614-1.766-1.844.131.071-.578z"/>
    <path id="mm" d="M383.608 113.191l-.905-1.449.656-.921-.62-1.14-.585-.111-.111-1.912-.875-1.694-.255.404-.584.993-.731.111-.366-.48-.183-1.29-.548-1.031-2.233-2.106.548-.362.102-1.524.816-1.372.353-3.41 1.182-.807.039-1.244.709.235 1.116 1.616-.829 1.775.559 1.394 1.38.542.252 1.519 1.854.287-.512.885-2.337.921-.255 1.508 1.717 2.207.072 1.178-.401.405.035.369 1.28 1.877.036 1.949z"/>
    <path id="mn" d="M365.444 69.617l1.9-2.52 2.282 1.054 1.55.415 1.9-1.743-1.289-.95.849-1.199 2.533.895.878 1.44 1.585.042.83-.617 1.707-.069.372.634 2.837.143 1.795-1.831 2.485.26-.144 2.495 1.087.247 1.335-.606 1.414.699-.033.353-1.025.03-1.068 2.239-.829.081-3.225 4.215-3.294 1.453-2.06.16-1.711-1.104-2.187 1.169-2.154-.669-.611-1.564-4.081-.288-2.089-3.541-1.015-.066z"/>
    <path id="mr" d="M277.661 104.38l.712.931-.147 4.022 1.035-.745.737-.15 1.036.372 1.181 1.639 1.11-.744 5.396-.075-1.332-9.014 1.43-.006-2.664-2.04.003 1.325-3.372.004-.016 2.529-.97-.003-.124 1.867z"/>
    <path id="mt" d="M306.294 89.302l-.545.11.02.605.49.163.218-.182z"/>
    <path id="mu" d="M345.599 144.315l-.495.65.097.701 1.046-.852z"/>
    <g id="mv">
      <path d="M359.764 118.777l.098.852.544.199.098-.751z"/>
      <path d="M360.459 120.578l-.049 1.052.398.198.35-.701z"/>
      <path d="M360.56 122.632l-.349.35.399.349.496-.349z"/>
    </g>
    <path id="mw" d="M324.102 137.92l1.016 1.061-.02 1.358.196.572 1.348-1.456-.156-1.85-.722-.551-.643-3.249-1.113-.04.506 2.34z"/>
    <path id="mx" d="M190.365 87.656l1.577 4.965-.734.411.081.986 1.388 1.068v1.974l1.713 1.645-.734-4.851-.979-3.21.244-2.219.816.082.327.741-.327 1.89 4.244 8.305v2.961l3.428 4.028 3.754 1.727 1.551-.905 2.203 1.809 1.306-1.315-.571-1.483 1.877-.574.571.33.572-.575h.897l1.633-2.879-.816-.741-3.183.741-.735 2.138-1.877.33-2.203-.905-.98-3.123.741-3.94-1.515-.944-.721-3.784-.604-.258-1.103 1.12-1.267-.676-.496-2.524-5.017-.526-2.592-1.948z"/>
    <g id="my">
      <path d="M384.675 117.043l.656 1.472.147 1.913.878 1.361 1.924 1.164.378-.298.553-.109-.08-.721-.695-1.692-1.019-2.164-.086.379-1.227-.055-.881-1.267z" class="mainland"/>
      <path d="M394.935 122.746l.986 1.14 3.781-1.31.747-2.886 1.685-.12 1.541-1.117-1.998-1.455-.458-.801-.985 1.819.362 1.044-.601.873-1.133-.291-2.745 2.014.071 1.165z"/>
    </g>
    <path id="mz" d="M322.147 148.979l.878.728 2.07-1.259.332-1.871v-3.088l3.32-2.716.569.02 2.01-1.929-.313-3.976-5.215.658.196 1.261.763.663.215 2.165-1.796 1.753-.431-.983.078-1.299-1.035-1.123-2.54 1.182 2.364 1.202.079 3.502-1.564 2.321z"/>
    <path id="na" d="M307.581 151.813l1.094.079.642.649 1.525.02.372-4.329v-2.833l.976-.197.372-2.971 2.481-.078.877-.727-1.485-.059-2.011.274-2.167-.786h-6.092l.157 1.729 2.03 2.991-.353 1.534.02.806z"/>
    <path id="nc" d="M441.455 151.327l-.115.584 1.504 2.1.811.349.114-.816z"/>
    <path id="ne" d="M295.939 112.653l.833-.02.75-1.126 1.26-.226 1.342.82 2.863.082 2.213-.902.833-.715.062-.94 1.543-1.557.408-3.438-1.015-2.129-2.598-.633-6.014 4.688-.852-.082-.366 3.254-3.068.307z"/>
    <path id="ng" d="M296.161 118.323l1.28.062 1.544 1.721.751.206.588-.288.894-.124.304-1.247 1.218-.8 1.319-.061 2.415-4.444-.039-1.002-1.116-.858-2.233.983-2.987-.042-1.424-.901-1.015.225-.529.921-.039 2.598-.852 1.208z"/>
    <path id="ni" d="M216.563 109.424l.715.144.023 1.465-.832 2.377-2.243-.222-.499-1.146.666-1.391 1.263-1.175z"/>
    <path id="nl" d="M298.943 68.996l-1.479.728.313.284.034.728-.313-.062-.347-.538-.826 1.31 1.27.263.473.5.252.006.166-1.129.799-.336z"/>
    <g id="no">
      <path d="M313.754 47.408l.66-.483-.06-.542-.417-.242.059-.662h.359v-.363l-1.557-.42-2.335.241-.238 1.025-.539-.18-.359-.604-1.14.059-.121 1.145-.538.242-.3-.604-2.397 1.93.48.542-.898.42-2.037 4.042-.717.483.058.362.718.362-.18.784-1.198-.062-.36-.421-.776.904-.48.362-.121.846-.418.242-1.077.242-.539 1.691.359 2.775.418 1.267.48.483 1.077-.059 1.558-1.508.597-1.025.18 1.508 1.019-1.809.058-5.07.829-.522.248-2.798 2.513-3.62 1.199-.42.539-.664 1.795.421.898.542.3-1.507 1.499-.905z" class="mainland"/>
      <path d="M304.875 31.68l-.539-.542-1.195.581h-2.194l-.346 1.28 1.231 1.087.538-.079.771-1.318.653.466-.464.93-.232 1.359.539.852 1.155-1.94 1.503-1.824-.578-.502z"/>
      <path d="M305.527 29.353l-.963.89.578.892h1.038l.424.58 1.27.66 1.462-.852 1.003-.852-.346-.699-1.003-.58-.731.659-.499-.621-.386.039-.499 1.087-.731-.738-.079-.503z"/>
      <path d="M307.721 33.348l-.77.699-.653.503.306.542.618.193 1.002-.467.464-.581-.425-.699z"/>
    </g>
    <path id="np" d="M364.592 93.248l.15 1.394 2.637 1.194 4.227.314-.159-1.022-2.824-.777-2.397-1.426z"/>
    <g id="nz">
      <path d="M443.537 171.401l.347 3.852-.464 1.75-1.737 1.282.115 1.518v1.633l.464.584 4.75-4.084v-.933h-1.159l-1.623-5.484z"/>
      <path d="M440.064 179.804l.927 1.749-2.55 2.452-.232 1.283-1.737.231-2.895 2.683-2.664-1.282-.232-.935 4.864-2.099z"/>
    </g>
    <path id="om" d="M340.823 105.745l2.413-1.391.428-2.04-.529-.304.219-2.187.46-.268.493.774 2.935 1.534v.853l-3.555 5.232-1.635.055z"/>
    <path id="pa" d="M217.494 115.137l-.477 1.488 1.574.408.976.193.166-1.152 1.048-.529.93.48.366.584.444-.052.349-1.061-1.162-.48-.882-.48-.881.6-1.048.529-1.071-.431z"/>
    <path id="pe" d="M218.943 128.165l-.633.641.042 1.02 5.531 10.082 5.742 3.701.888-1.488.212-3.274-.464-2.04-1.564-2.638-.93.297-.421.467-1.857-2.128.463-2.511 2.155-1.404-.17-1.318-2.193-.086-1.14-1.912-.633-.212.043 1.149-2.828 3.36-2.112-.51z"/>
    <g id="pg">
      <path d="M423.866 127.764l-.121 7.978 1.15-.062 1.511-1.766 1.269.062.817.732.271 2.252 2.599 1.372.666-.245v-.823l-2.086-1.737-1.029-2.377.817-.395-.605-1.309-1.207-.029-.304-1.401-3.203-2.161z" class="mainland"/>
      <path d="M433.701 129.964l-.309.072-.189.839-.594.386-1.786.313.072.672 1.88-.094 1.192-.745-.071-1.296z"/>
      <path d="M432.915 127.996l-.288.408 1.571 1.391.215.816.427-.049.05-.839-.477-.431z"/>
    </g>
    <g id="ph">
      <path d="M403.172 111.193l-.281.536-.156.659-1.561 1.982.095.408.656-.095 2.027-2.266z"/>
      <path d="M405.698 110.439l-.033 1.636.594.597.219 1.162.594.128.28-.725-.467-.346-.123-2.044z"/>
      <path d="M407.386 111.07l-.033 1.446.343.564.594-.692-.157-1.257z"/>
      <path d="M407.758 109.809l.594.787.28.754h.533l-.095-1.29-.594-.407z"/>
      <path d="M408.914 112.767l.124.943-1.094.882-.905.094-.966 1.039.033.472.904-.283.624-.408.532 1.351.936.66.376-.128.342-.408-.747-.754.438-.346.499.408.342-.564-.342-.693-.062-1.541z"/>
      <path d="M403.828 103.176l-.842.597-.095 1.887 1.313 2.546.438.346.561-.379.966.157.186.849.718.062.343-.471-.437-.597-.532-.503-1.124-.123-.594-.976.686-1.039.062-.91-.467-1.162z"/>
      <path d="M404.265 108.804l.248.882.438.284.313-.408-.5-.692z"/>
    </g>
    <path id="pk" d="M348.903 95.625l.849 1.26-.082.65-1.129.448-.082 1.057h1.293l.444-.366h2.461l2.22 1.953.284-.937h1.656l.039-1.178-1.694-1.626.362-.895 1.737-.12 2.341-4.88-1.294-1.016-.482-1.707 3.147-.284-1.857-2.644-.99-.268-.404.49-.304.023-1.857 1.178.607 1.019-.686.731-.849 3.131-2.099 1.342-.284 1.466z"/>
    <path id="pl" d="M312.448 71.116l.277.509.065.542-.228.525-.522 1.006-.441.2-.572-.25-.342.017-.833.314-.946-.28-1.534-1.088-1.503-.806-.604-.92-.114-2.172 1.175-1.022 1.534-.51.502-.052.119.38.651.262 1.8.034.555-.017.914 1.4-.228.575.098.676z"/>
    <path id="pr" d="M233.966 105.816l-.862-.29-.692.433.346.405 1.179.173z"/>
    <g id="pt">
      <path d="M286.159 83.024l-.202 2.824-.578.523.059.32.404.668-.261.816.434.148 1.012-.118-.058-.816.663-3.784-.144-.523z" class="mainland"/>
      <path d="M278.732 91.244l-.352.447.352.448.532-.268z"/>
      <path d="M267.13 84.911l-.444.447.796.448.088-.623z"/>
      <path d="M269.523 84.643l-.532.356.444.355.708-.18z"/>
      <path d="M269.876 85.893l-.265.715.353.447.444-.355z"/>
      <path d="M272.001 87.32l-.176.447.264.268.709-.447z"/>
    </g>
    <path id="py" d="M240.727 144.485l.718.783-.085 1.659 2.07-.128 1.564 2.001-.128 1.786-1.012 1.531-2.069.085-.085-.852.59-1.404-2.027-1.276h-1.688l-1.266-1.362.92-2.631z"/>
    <path id="qa" d="M338.946 98.622l-.17 1.31.503.381.457-.042.169-1.648-.395-.284z"/>
    <path id="ro" d="M312.683 75.306l-.086.484-1.89 1.573 1.58 2.317 1.013.71h1.822l.601-.503.806-.105.601.363 1.064-1.212-.206-.606-1.08-.278-.738-.036.036-1.038-.98-1.54z"/>
    <path id="rs" d="M310.519 77.572l-.669.503h-.326l-.222.692.79.917.052.728-.333.471 1.159 1.207 1.252-.382-.103-1.783z"/>
    <g id="ru">
      <path d="M412.508 37.873l.575 1.985 1.149.33 1.149-1.819-.656-1.24.245-1.075h1.723l-.411.826.163 2.978-2.462 6.117.245 1.322-.081 2.233 4.592 6.696.902.248.081-5.455.901-.826-.985-2.148.82-.911-1.806-2.397-.986.082-.326-3.966 2.543-.663.163-1.159 1.314-.33.737.664.901-3.638 1.558-2.643 1.23-.663 1.068.082v-1.24l-1.723-.33-2.38-1.986 1.149-1.321-.985-2.233.819-.826.986 1.321 2.462.911 2.706.248.329-1.156-1.393-1.404 1.557-2.148-3.529-1.24-.901 1.818-1.149-1.489-6.48-2.233-6.154 1.074-.902.497v.495l1.313.663-.164 1.57-2.38-.992-5.248 2.067-.902-1.9h-3.611l-1.642 1.737-5.824-1.322-5.331 1.074-.656 1.652.82.248-.082 1.24-5.168.578.33 1.652-4.76-.826 1.149-2.149-4.841-.248.411 2.233-1.557.745-1.313-1.24-5.331.91-2.05 1.9-.081 1.156-1.313.081-.164-1.322 4.185-3.636v-2.481l-2.706-.744-3.529 1.155-1.476-1.488h-.656l-.819 1.652.656.744-4.679 2.563-4.019 3.06-2.461 3.387v1.404l2.624 1.075-1.313.992-2.787-.992-1.15.992-1.723-1.985-.33.745 1.887 5.95.493.167 1.313-.663.656.496v1.074l-1.231-.495-.738.577.494 1.074-.412 2.811-2.543.248-.163-.91 1.475-.911.33-2.482L342.607 42l-.575-3.718-2.624-.415-.245 1.322.493.662-1.067.911.412 2.482 1.557.662.33 1.818-1.561-.992-4.019-.745-.493 1.323-3.2 1.156-.493-.826-4.185 2.314-.081 1.57-1.643.248.494-1.156V47.46l-1.643-.577-1.067.415.901 1.737.656 1.155v.911l-1.231-.248-.244-.248-1.232 1.322.656 1.156-2.788-.081.902 1.159-.245.495h-1.475l-1.068-.744-.244-2.067-1.723-.662v-.826l3.61.744 1.969.167.82-1.24-.738-1.323-5.249-2.067-1.812.45-.621.533.193 1.224.77.133-.179 1.927 2.376 5.582-1.717 2.722-.118.614.872.614-.787.52-.522.009.098 2.4.721 1.021.01.992.924.085 1.412.539 1.496 2.056.017.542-.487.833 1.117-.062 1.086.314 1.47 2.079 3.617.33-.157 2.474-1.247 1.068.258.417-1.231 1.323-.326 1.24.738 1.074 2.379.826.986-.578 6.318 2.397.244-.663-1.312-1.24v-1.57l-.82-.248.164-1.322 1.312-1.57-2.353-1.763.163-2.452 2.517-1.655 2.954.166.494.911 3.036.167 2.216-1.24-1.149-1.241.244-2.315 5.742-2.81 4.417 1.99 1.476-1.321 4.348 4.132 3.281-.33 1.15 1.156 3.117.33 2.051-2.81 2.624 1.158 1.394.249 1.394-1.24-1.231-.827 1.067-1.652 3.036.992.656 1.323 1.313.081.82-.577 2.216-.082.244.578 2.543.166 1.723-1.818 3.529.414 1.068-.414.326-1.985-1.067-2.397 1.067-.91h3.363l3.199 3.802 4.1 2.315h1.231l.164-.992 1.475-.911.164 5.373-1.313.082v1.322l.738.91-.137 1.182.545.226.33-.826.493.166.326.33 1.476-.33 1.475-4.3.164-5.373-1.887-4.3-2.38-2.891-1.149.166v.91l-2.788-1.074 1.067-2.314.902-6.118 3.773-1.155 1.805-1.156h1.969l-.496.662.493.827 1.724-1.818.985.08-.163-1.073-1.561-.33 1.068-3.885z" class="mainland"/>
      <path d="M309.804 66.623l-.49.905 1.762.016h.359l-.068-.51-.275-.323z"/>
      <path d="M419.713 57.166l-.404.503.033.786.374-.032.624-1.1z"/>
      <path d="M433.179 26.597l-.77.503-.183.64.363.41.816-.274.816.275.453.137-.045-1.509z"/>
      <path d="M324.318 26.727l.561.226-.395.68v.962l-.842.51h-.898l-.506-.624.055-.679.395-.51h.787z"/>
      <path d="M326.453 26.104v.68l.561.453.786-.055.676-.624v-.454h-.617l-.506.17-.396-.454z"/>
      <path d="M329.659 26.162l.395.85.787.055.561-.225-.28-.794-.732-.17z"/>
      <path d="M332.861 25.03l-.617-.114-.562.568.281.509.17.794.731-.566.17-.623z"/>
      <path d="M336.289 31.034l-.17.793-1.293 1.133-2.755.623-2.25 3.738-.395 1.077 2.25.569.336-1.359.676-2.095 1.743-.908 1.462-1.133 1.067-.453h.562V31.49z"/>
      <path d="M329.038 39.303l1.518.17.507 1.755 1.293 1.359-.451.907h-.786l-.732-.85-1.629-.054-.675-.908v-.623l1.012-.284z"/>
      <path d="M352.761 19.99l-.732-.454h-.842l-.169.51-.898.51-.676.225-.111.679 1.574.114z"/>
      <path d="M354.502 20.16l-.396.848-.786-.055-1.238.907-.336 1.133h.787l.45-.738 1.068.794 1.012-.454.732-.623-.281-.964-.395-.679z"/>
      <path d="M356.133 20.783l.395 1.586.618 1.472.676-1.188 1.292-.284v-.849l-.841-.623z"/>
      <path d="M386.976 18.244l.879.737.623-.258.182-1.035-1.279-.884-.843.555-2.05.186v.923l-2.161.037v1.51l2.526 1.881.66-.48-.147-1.329 1.612-.404-.329-.627-.585-.59z"/>
      <path d="M389.321 17.358l.584 1.108 2.272-.259.623-.813-.147-.7-.623-.26-.584.445-1.685.37z"/>
      <path d="M389.174 21.674l-1.137-.293-.656.701-.294.96 1.538-.147 1.172-.59z"/>
      <path d="M418.616 15.292l-.953-.294-1.097.405-.548.812.695.924 1.832-.812.365-.405z"/>
      <path d="M418.965 59.085v1.384l.438.157.313-.503v-1.067z"/>
      <path d="M406.198 54.084l-.029 2.014 2.527 3.901.904 3.395 1.594 3.02.622.219.533-.441.248-.725-2.279-2.484.062-1.29.5-.218.124-.754-4.463-6.32z"/>
      <path d="M423.803 47.826l-.622.062.375.536.779.535.219-.251z"/>
      <path d="M425.018 48.205l.095.535.966.284.095-.378z"/>
      <path d="M430.322 50.258l.408.732.68-.046.136-.503z"/>
      <path d="M437.168 51.4l.545 1.006.408-.457v-.685z"/>
    </g>
    <path id="rw" d="M321.054 125.025l.917.845-.039.905-1.424.029v-.999z"/>
    <path id="sa" d="M336.128 96.735l2.289 3.188.738.589.33 1.429 3.522.277.399.21-.395 1.762-2.315 1.365-3.385 1.025-1.806 1.763-2.144-1.251-1.299 1.136-1.809-2.954-1.241-.568-.45-.682v-1.479l-4.514-5.458-.171-.967h1.299l1.581-1.364.055-.683-.45-.453.904-.738 1.92.114 3.274 2.73 1.932-.088.125.477z"/>
    <g id="sb">
      <path d="M435.82 131.427l.405 1.126.714.695.216-.192-.072-.745-.81-.983z"/>
      <path d="M437.795 133.104l.05.745.453.431.428-.265-.382-.794z"/>
      <path d="M438.366 134.953l-.382.408.405.744.476.144-.023-.503z"/>
      <path d="M439.297 134.521l.333.816.643.767.356-.574-.477-.816z"/>
      <path d="M440.965 135.745l.189 1.009.454.623.382-.79z"/>
      <path d="M441.487 138.001l-.166.288.548.721.383.024-.239-.938z"/>
      <path d="M440.273 139.438l-.572.264.5.696.427-.242z"/>
    </g>
    <g id="sc">
      <path d="M342.119 131.045l-.198.401.545.45.398-.45z"/>
      <path d="M344.904 128.042l-.598.401.448.701h.598z"/>
      <path d="M345.152 129.795l-.399.45.297.45.545.102.049-.953z"/>
    </g>
    <path id="sd" d="M315.86 114.49l-.963-.568-.878-1.733.049-1.613 1.218-1.047.058-3.863.803.023-.091-2.145 8.423.075 1.204-1.214 2.599 4.156-1.424 1.677v2.563l-1.737 3.735-.393.869-1.401-2.008-1.022 1.3-1.156.315-3.754-.378-1.636.582z"/>
    <g id="se">
      <path d="M307.962 48.205l.64.59h1.198l.66 1.267.18 2.171-1.616 1.146v1.146l-1.139 1.57-.66.058-.898 1.508.059 1.45 1.557 1.146-.12.663-.598.904-.897.784.058 2.595-1.377.483-.48 1.025h-.66l-.358-1.809-1.499-2.298 1.231-2.06.085-5.09.849-.466.206-2.912 2.419-3.464z" class="mainland"/>
      <path d="M308.214 63.088l-.689.545.346.8.611-.595z"/>
    </g>
    <path id="sg" d="M388.435 123.052l.259.146.584-.047-.049-.441-.476.075z"/>
    <path id="si" d="M307.009 76.74l-.829.496-1.547.34.31.893 1.084.013.999-.836z"/>
    <path id="sk" d="M307.349 75.153l.225.2.029.338 2.491-.055 1.841-.794-.029-.806-.352.157-.506-.271-.311-.014-.816.327-1.109-.268z"/>
    <path id="sl" d="M280.609 116.286l1.845 1.782 1.315-1.596-.823-1.29-1.133.115z"/>
    <path id="sn" d="M280.466 112.124l-2.187-.053.404.983.225-.607 2.746.288.305-.011 1.286.045.045-.568-1.174-1.409-1.31-1.773-.813-.339-.627.16-1.286.934-.293.522-.091.523.473.339 1.58-.023 1.016-.275.114.5-.091.659z"/>
    <path id="so" d="M338.731 113.322l1.426-.549.506.304-.055 1.266-1.315 3.748-7.121 7.625-.826-.568-.055-3.218 1.07-1.231 2.273-.701 3.333-3.519.872-.777.244-1.136z"/>
    <path id="sr" d="M241.174 118.901l.666.61 1.032-.639.94.029-.121.366-.395.823-.062 2.047-1.877.763.092-1.312-1.212-1.13.062-.581z"/>
    <path id="ss-5" d="M324.619 115.617l-.771.339.245 1.342h.96l1.302 1.89-1.045.133-.268.487-.026.701-3.134-.055-.32-.486-2.191-.124-4.021-4.14.401-.242 1.706-.515 3.738.285 1.271-.285.844-1.131z"/>
    <g id="st">
      <path d="M299.155 124.127l.375-.189.281.228-.281.434-.339-.134z"/>
      <path d="M299.909 122.936l.565-.095.189.359-.281.304-.28-.039z"/>
    </g>
    <path id="sv" d="M211.311 110.782l1.534.764-.023-1.211-.787-.48z"/>
    <path id="sy" d="M323.942 88.864l-.114.83.921.385-.04 2.298.921-.02.921-.695.346-.059 2.089-1.66.421-2.414-4.176.425-.441.966z"/>
    <path id="sz" d="M322.049 149.215l-.819.136-.354.964.627.571h.761l.643-.923z"/>
    <path id="td-6" d="M306.353 110.694l.043-.964 1.547-1.504.415-3.696-1.031-1.971.722-.37 6.985 3.64-.042 3.571-1.231 1.048v1.841l.807 1.561h-1.424l-2.357 2.331-.062.705-1.739-.023-.023.32-.993-.131-.679-1.282-.51-.252.066-.392.639-.489v-2.291l-.885-.137-1.067-.794z"/>
    <path id="tg" d="M294.088 118.937l.875-.512-.02-3.379-.568-.92-.365.306z"/>
    <path id="th" d="M383.8 102.36l1.058 1.361v1.655l.365.182 1.682-.809.329.111 2.008 2.318-.072 1.583-.656-.111-.584-.37-.438.037-.767 1.285.148.699.62.33-.036.774-.437.222-1.499-1.031v-.921l-.621-.036-.254.404-.131 4.12.969 1.77 1.717 1.655-.071.48-.915-.036-.838-1.25h-.878l-1.096-.886-.33-.92.473-.774.163-.699.516-.914-.023-2.102-1.26-1.821-.053-.222.409-.412-.095-1.446-1.677-2.125.196-1.224z"/>
    <path id="tj" d="M351.207 83.22l1.342-1.665h.506l.176.371-.62.45v.373l.408.293 1.962.118.64-.275.29.058.197.627 1.165.118.584 1.234-.176.372-.232.02-.231-.47-.506-.04-.875.118-.059.824-.874-.059.039-1.038-.64-.627-.972.803.02.529-.856.293h-.506l.039-1.821z"/>
    <path id="tm" d="M339.344 81.832l-.202.859h-1.355v1.162l1.456.96-.45 1.315v.607l.604.102.803-1.062 1.809-.404 3.865 1.466.048 1.06 2.158.203 2.41-2.53-.301-.81-1.606-.353-4.518-2.934-.202-1.062h-1.708l-.754 1.418h-.754z"/>
    <path id="tn" d="M300.517 88.276l1.805-.727.593.385.023.47-.277.362.042.643.278.15v1.156l-.32.535.042.343 1.211.427-.976 1.519-.382-.023-.065 1.22-.425.066-.362-.32.085-1.24-1.188-1.157-.15-1.005.574-.45z"/>
    <path id="tr-2" d="M318.378 83.096l-.87-.539-.48-.382-.808.346-.558 1.412.839-.189.589-.448 1.299.354-.735.709-1.954-.095-.722.79v.386l.461.386v.424l-.193.503.193.424.614-.307.613.656-.153.464-.228.31.342.385 1.685.346 1.186-.502v-.732l.574.115 1.378.81 1.491-.233.65-.616.42.153v.695h.575l.496-.963 4.361-.464 1.904-.231-.503-.66-.009-.89.381-.458-1.39-1.116.074-.963h-.763l-1.267-.62-.729.77-2.676-.079-1.607-.963-1.541.138-1.716 1.031z"/>
    <path id="tt-9" d="M237.619 113.56l-.346.32-.376.058v.464l.693.637.287-.464.173-.522-.059-.434z"/>
    <path id="tw" d="M402.548 95.126l-1.155.881-.062 1.697.999 1.163.248-.22z"/>
    <path id="tz" d="M325.708 135.254l5.21-.638-1.282-2.481-.069-2.376.415-1.136-5.426-3.408-1.7.281-.591.437-.052.996-.382 1.381-.399.473-.571.053 1.06 3.557 1.819 1.072 1.584.037z"/>
    <path id="ua" d="M313.79 70.59l-.947.532.235 1.005-.875 1.845.008.812.411.261 2.637.13.738-.61.79.265 1.133 1.511-.829 1.489.986.287 1.289-1.485.738.134.686.476-.605.797.816 1.273h.868l.448-.85.921-.186.026-.688-1.711-.264.053-.742h1.658l1.789-1.433.79-.689.131-2.174-3.526-.316-1.446-2.04-.999-.343-1.212.052-.545 1.348-2.481.033-.806-.372z"/>
    <path id="ug" d="M321.21 124.76l.989.927.621-.394 1.677-.275.288.029.107-.637.948-1.991-.797-1.659-2.582.017-.016.683.346.333-.052.682z"/>
    <g id="us">
      <path d="M194.045 65.755l-.327 1.312-1.14-.738h-.568l-.326 1.394-3.986 8.932 1.058 7.782 1.302.656.245 2.132h2.683l2.602 1.965 5.122.493.568 2.621.813.575 1.139-1.146.895.408.812 3.767 1.381.902 1.139-2.132 3.497-2.54 2.275 1.063 1.952.164.082-1.227 4.064.081.813.902.163 2.047-.486 1.145.568 1.965h1.221l1.22-1.883-.486-.901-.487-1.966.732-2.213 3.333-2.866 2.52-.738-.326-2.376 3.496-3.77 3.496-.575-.568-1.96 3.415-1.967v-2.62l-.327-.164-1.221.409-.163 1.605-4.058.049-3.179 2.113-4.992 1.632-.796-.977 2.265-3.427-1.119-1.068-.761-1.45-1.577-1.266-1.713-.143-3.239-2.21z" class="mainland"/>
      <path d="M168.062 31.48l1.13 2.113.725-.163v-.732z"/>
      <path d="M161.693 50.059l-.055.983.705-.164v-.437z"/>
      <path d="M160.61 50.496l-1.41.712.218.764.542-.438 1.084-.493z"/>
      <path d="M154.75 51.424l-.976-.219-.163.437.108.82z"/>
      <path d="M152.687 51.37l-.924-.38-.327.6.598.6z"/>
      <path d="M175.878 28.719l-2.739.65.565 3.085 2.98.812.16.65-4.43 1.38-2.497 4.14.885 4.384 1.449.973 1.13-1.055.323.65-1.371 1.622-5.318 2.436-3.386.812-.081 1.218 7.815-2.272 3.222-.894 2.981-3.654 3.304-2.19-1.692 2.84 1.855.244 3.143-1.38.565 2.272 2.174.486 2.256 2.19.16 1.623-.323.405.402 1.541h.565l.081-2.599h.643l.16 6.412 1.613-1.381-1.13-6.657h-1.691l-1.854-2.353 9.105-15.425-9.023-7.06-10.071 1.949-.402 3.084 2.174 1.3-.806 2.112z"/>
    </g>
    <path id="uy" d="M243.534 155.068l-.669.715.277 3.846 2.102.61 2.674-2.68z"/>
    <path id="uz" d="M350.793 85.577l1.005.052v-1.72l-.952-.555 1.606-2.024h.653l.653.761 1.707-.656-2.36-.81-.091-.49-.561.137-.552.96-2.38-.078-1.747-2.471-3.068.303-1.462-1.45-2.024-.342-1.469.598.852 2.833.009.953.621.013.76-1.45 2.024.026.301 1.113 4.338 2.88 1.677.386z"/>
    <g id="vc">
      <path d="M237.564 111.298l-.402.29.317.582.519-.291z"/>
      <path d="M237.074 112.427l-.376.376.144.231h.46l.144-.379z"/>
    </g>
    <path id="ve" d="M227.245 113.932l.143.846 1.061.337.242-1.558 1.12-1.158 1.119 1.312 2.576.702 2.181-.457 1.485 1.831 1.12.702-1.228 1.87.412 1.417-.702.868-.728.611-1.577-.794-.362.366v1.129l1.152.548-.848.918-.849.918-1.12-.092-1.126-1.237-.239-4.655-3.845-1.312-.699-2.047z"/>
    <path id="vn" d="M388.707 113.452l.388.61.071.7 1.022.111 1.241-1.656 1.169-.329.62-1.692-.291-2.722-1.204-1.656-1.27-1.015-1.615-2.775.213-1.74 1.146-.796-1.505-1.307-1.683-.058-1.195.643.356 1.537 1.593.281.428 1.185-.562.366.037.294 3.737 3.656.146 1.074-.224 3.395z"/>
    <g id="vu">
      <path d="M446.1 143.737l-.405.542.17.611.202.136.37-.476z"/>
      <path d="M446.302 145.399l.033.441.438.137.304-.17-.304-.477z"/>
      <path d="M446.942 149.336l-.202.306.303.339.506-.169z"/>
    </g>
    <g id="ye">
      <path d="M332.208 108.484l.47 1.397v1.365l1.129 1.025 7.959-3.242.075-.891-1.277-2.291-3.202 1.021-1.838 1.808-2.132-1.26z" class="mainland"/>
      <path d="M341.228 111.885l.695.778.94-.568.339-.115-.431-.417-.826.244z"/>
    </g>
    <path id="za" d="M319.858 145.83l-2.579 2.383-.613 1.472-2.044-.254-1.701 1.511-1.129-.111.091-2.089-.401-.14-.281 4.273-2.004-.02-.605-.712-.885-.009.807 2.314 1.44 1.362-1.029 1.198.667 1.501 1.54.589 1.228-1.045 3.516.02.252-.314 1.561-.275 5.279-5.255-.02-1.655-.565.731h-.845l-1.029-.862.523-1.299.898-.182-.082-2.67zm-1.237 6.039l.493-.02.8.869-.023 1.005-.937.473-.058.334-1.43.016-.448-1.078.409-.79z"/>
    <path id="zm" d="M313.457 139.65l1.034 1.436 1.603.098.568.313 1.678.02 1.446-2.026 4.041-1.809.353-1.593-.47-2.283-2.108-1.201-1.408.098-.701 1.554.02.708 1.658.807.098 1.753-1.425.079-.354-.591-3.963-1.691-.118 1.299-1.873.058z"/>
    <path id="zw" d="M316.757 142.131l2.929 3.307 2.246.572 1.504-2.36-.118-3.127-2.441-1.261-.918.415-1.367 2.086-1.894-.02z"/>
  </g>
</svg>
